<?xml version="1.0" standalone="no"?>
<!DOCTYPE svg PUBLIC "-//W3C//DTD SVG 20010904//EN"
 "http://www.w3.org/TR/2001/REC-SVG-20010904/DTD/svg10.dtd">
<svg version="1.0" xmlns="http://www.w3.org/2000/svg"
 width="2000.000000pt" height="1333.000000pt" viewBox="0 0 2000.000000 1333.000000"
 preserveAspectRatio="xMidYMid meet">

<g transform="translate(0.000000,1333.000000) scale(0.100000,-0.100000)"
fill="#000000" stroke="none">
<path d="M12905 11493 c-39 -21 -16 -29 24 -8 17 8 31 18 31 20 0 10 -26 4
-55 -12z"/>
<path d="M13017 11503 c-14 -13 -6 -20 18 -15 20 3 25 0 25 -17 0 -11 4 -21 9
-21 14 0 21 44 8 52 -15 10 -51 10 -60 1z"/>
<path d="M13316 11495 c-4 -13 -13 -15 -36 -10 -20 4 -30 3 -30 -5 0 -7 -13
-10 -32 -8 -25 2 -34 -1 -36 -15 -3 -15 2 -18 25 -16 15 2 33 0 39 -4 17 -10
74 13 74 29 0 11 4 12 19 4 28 -15 33 -13 29 13 -4 27 -42 36 -52 12z"/>
<path d="M13436 11496 c4 -10 12 -15 19 -12 7 2 21 -4 30 -14 15 -17 15 -19
-1 -28 -15 -8 -13 -11 14 -17 17 -3 36 -4 41 0 6 3 26 6 46 7 41 1 48 18 8 18
-40 0 -74 11 -67 21 3 5 -2 9 -11 9 -9 0 -13 5 -10 10 3 6 -5 10 -19 10 -13 0
-32 3 -40 6 -12 5 -15 2 -10 -10z"/>
<path d="M13950 11490 c0 -5 5 -10 10 -10 6 0 10 5 10 10 0 6 -4 10 -10 10 -5
0 -10 -4 -10 -10z"/>
<path d="M13110 11483 c1 -21 15 -30 27 -18 10 10 9 14 -3 19 -20 8 -24 8 -24
-1z"/>
<path d="M13570 11473 c0 -10 4 -14 8 -8 4 6 11 13 16 18 5 4 2 7 -7 7 -10 0
-17 -8 -17 -17z"/>
<path d="M13664 11474 c9 -6 26 -9 38 -6 14 3 19 1 14 -6 -4 -7 -14 -12 -22
-12 -8 0 -17 -7 -20 -15 -4 -8 -13 -15 -22 -15 -12 0 -13 -3 -4 -12 9 -9 15
-9 24 0 7 7 20 12 30 12 10 0 18 5 18 10 0 6 5 10 11 10 7 0 9 -10 5 -25 -4
-14 -2 -25 3 -25 5 0 12 16 15 35 9 45 16 48 52 20 l29 -23 -27 -11 c-55 -21
-27 -29 97 -28 69 1 125 4 125 7 0 4 19 6 43 6 33 -1 41 -5 39 -17 -2 -13 9
-16 59 -17 40 -1 67 -6 78 -16 10 -9 24 -16 32 -16 12 0 11 2 -1 11 -11 8 -12
12 -2 16 16 6 5 24 -12 17 -7 -3 -16 2 -19 10 -4 9 -14 16 -24 16 -13 0 -14 3
-5 12 7 7 16 8 24 2 25 -18 148 -3 148 18 0 5 10 6 23 2 12 -3 19 -3 15 1 -3
4 -80 8 -170 10 -143 2 -159 1 -133 -11 17 -7 36 -13 43 -14 17 0 15 -27 -4
-34 -22 -9 -24 -8 -18 9 4 10 0 15 -14 15 -12 0 -28 10 -36 21 -20 29 -145 45
-154 20 -3 -10 2 -12 21 -7 14 3 29 1 32 -4 4 -6 11 -8 16 -5 5 4 9 2 9 -4 0
-15 -18 -23 -25 -11 -4 7 -19 8 -36 5 -38 -9 -52 1 -39 26 9 17 7 19 -17 19
-15 0 -51 3 -79 6 -40 5 -54 3 -67 -11 -15 -15 -21 -13 -18 8 1 8 0 8 -53 11
-33 3 -36 1 -22 -10z m396 -39 c7 -8 8 -15 2 -15 -5 0 -15 7 -22 15 -7 8 -8
15 -2 15 5 0 15 -7 22 -15z m-186 -11 c9 -8 16 -17 16 -19 0 -9 -44 13 -48 23
-5 17 14 15 32 -4z"/>
<path d="M13393 11453 c-20 -7 -15 -23 7 -23 11 0 20 4 20 9 0 13 -12 19 -27
14z"/>
<path d="M14447 11424 c-4 -4 -7 -16 -7 -27 0 -16 -3 -17 -14 -8 -12 10 -17 8
-25 -7 -6 -11 -30 -24 -56 -31 -30 -7 -45 -17 -45 -27 0 -12 3 -14 13 -6 7 6
23 9 35 5 13 -3 22 -1 22 6 0 6 17 11 38 11 21 0 43 5 50 12 9 9 15 9 24 0 18
-18 33 -15 18 3 -12 14 -5 15 61 10 40 -3 78 -10 83 -15 6 -6 18 -10 29 -10
10 0 25 -7 33 -15 9 -8 27 -15 40 -15 14 0 34 -5 44 -10 13 -7 27 -6 45 2 20
9 31 8 51 -2 15 -9 28 -10 32 -5 4 6 26 11 49 12 33 2 41 -1 37 -11 -3 -8 4
-24 15 -35 22 -22 41 -27 41 -11 0 6 -4 10 -10 10 -17 0 -11 29 9 39 28 15 93
2 99 -21 5 -22 22 -24 22 -3 0 18 14 19 41 4 15 -7 28 -7 49 3 36 15 37 22 8
35 -21 9 -20 10 11 11 30 1 32 -2 27 -22 -7 -30 20 -58 30 -32 5 13 9 14 20 5
8 -7 18 -9 21 -5 7 7 -9 21 -31 29 -5 2 -5 11 1 21 9 17 11 17 26 1 10 -9 17
-12 17 -6 0 8 23 9 62 2 3 0 4 -11 1 -22 -4 -15 0 -25 13 -32 26 -15 81 -20
89 -8 9 15 -18 52 -33 46 -8 -3 -12 0 -10 6 6 18 60 20 80 3 15 -14 19 -14 38
-1 20 14 19 15 -22 21 -24 3 -80 6 -125 7 -45 1 -106 6 -135 10 -29 4 -96 13
-148 19 -52 6 -119 14 -147 18 -32 5 -56 5 -62 -1 -7 -7 -15 -6 -24 1 -9 8
-80 14 -193 17 -174 5 -268 11 -309 21 -11 3 -24 2 -28 -2z m213 -44 c0 -5 -4
-10 -9 -10 -6 0 -13 5 -16 10 -3 6 1 10 9 10 9 0 16 -4 16 -10z m30 -6 c0 -8
-5 -12 -10 -9 -6 4 -8 11 -5 16 9 14 15 11 15 -7z m125 -14 c-3 -5 -11 -10
-16 -10 -6 0 -7 5 -4 10 3 6 11 10 16 10 6 0 7 -4 4 -10z m249 -14 c-3 -9 -10
-13 -16 -10 -5 3 -4 12 3 20 15 18 22 13 13 -10z m-87 -6 c-1 -19 -17 -27 -30
-14 -6 7 13 33 25 34 4 0 6 -9 5 -20z m51 -3 c3 -16 1 -17 -17 -7 -25 13 -28
33 -4 28 10 -2 19 -11 21 -21z m142 13 c0 -12 -28 -25 -36 -17 -9 9 6 27 22
27 8 0 14 -5 14 -10z m66 0 c12 0 12 -3 2 -20 -11 -18 -14 -18 -24 -5 -14 19
-24 19 -24 0 0 -8 -4 -15 -10 -15 -13 0 -13 6 2 30 7 11 19 18 26 15 8 -3 20
-5 28 -5z"/>
<path d="M13641 11354 c0 -11 3 -14 6 -6 3 7 2 16 -1 19 -3 4 -6 -2 -5 -13z"/>
<path d="M13738 11283 c6 -2 18 -2 25 0 6 3 1 5 -13 5 -14 0 -19 -2 -12 -5z"/>
<path d="M13786 11282 c-7 -12 50 -25 129 -28 33 -2 119 -11 190 -21 104 -15
140 -17 175 -8 45 11 44 11 -65 23 -60 6 -121 14 -135 16 -14 2 -70 7 -125 10
-55 4 -114 9 -131 12 -18 3 -34 1 -38 -4z"/>
<path d="M14930 11280 c0 -5 5 -10 11 -10 5 0 7 5 4 10 -3 6 -8 10 -11 10 -2
0 -4 -4 -4 -10z"/>
<path d="M15610 11239 c0 -5 5 -7 10 -4 6 3 10 8 10 11 0 2 -4 4 -10 4 -5 0
-10 -5 -10 -11z"/>
<path d="M15382 11229 c2 -7 10 -15 17 -17 8 -3 12 1 9 9 -2 7 -10 15 -17 17
-8 3 -12 -1 -9 -9z"/>
<path d="M15235 11220 c3 -5 10 -10 16 -10 5 0 9 5 9 10 0 6 -7 10 -16 10 -8
0 -12 -4 -9 -10z"/>
<path d="M14546 11211 c17 -4 36 -11 43 -15 6 -4 58 -10 114 -12 56 -2 122 -7
147 -9 83 -10 254 -13 274 -5 24 8 -144 28 -299 34 -55 2 -147 7 -205 10 -59
3 -92 2 -74 -3z"/>
<path d="M14390 11189 c0 -5 5 -7 10 -4 6 3 10 8 10 11 0 2 -4 4 -10 4 -5 0
-10 -5 -10 -11z"/>
<path d="M15236 11186 c21 -15 30 -14 19 3 -3 6 -14 11 -23 11 -13 0 -13 -2 4
-14z"/>
<path d="M12641 10886 c-12 -14 -5 -26 16 -26 15 0 18 26 4 34 -5 3 -14 0 -20
-8z"/>
<path d="M12870 10870 c-12 -8 -10 -10 8 -10 13 0 20 4 17 10 -7 12 -6 12 -25
0z"/>
<path d="M13002 10847 c-13 -15 -4 -60 10 -51 5 3 7 13 4 21 -4 9 -1 22 5 29
7 8 7 14 1 14 -5 0 -14 -6 -20 -13z"/>
<path d="M13070 10823 c1 -18 19 -35 29 -28 9 5 9 10 0 21 -12 15 -29 19 -29
7z"/>
<path d="M13590 10810 c0 -8 -10 -11 -30 -8 -40 6 -38 -10 4 -27 19 -8 38 -19
41 -25 11 -18 23 -2 18 24 -6 28 -33 58 -33 36z"/>
<path d="M13213 10782 c-18 -12 69 -52 96 -45 26 7 22 28 -5 28 -10 0 -29 6
-41 13 -25 14 -33 15 -50 4z"/>
<path d="M13683 10770 c1 -15 7 -20 22 -18 27 4 26 32 -2 36 -17 3 -21 -2 -20
-18z"/>
<path d="M13875 10761 c6 -11 -29 -34 -38 -25 -3 3 -15 3 -27 -1 -17 -5 -19
-10 -9 -21 13 -16 34 -19 24 -4 -3 5 5 9 17 8 13 -1 38 5 56 13 l33 15 -26 12
c-31 14 -38 15 -30 3z"/>
<path d="M13360 10745 c0 -10 7 -15 18 -13 21 4 19 22 -2 26 -10 2 -16 -3 -16
-13z"/>
<path d="M13998 10732 c-10 -2 -18 -6 -18 -8 0 -12 30 -34 46 -34 9 0 23 -8
30 -17 13 -17 15 -17 25 0 13 22 30 22 71 -3 34 -19 138 -35 138 -21 0 18 -35
36 -69 36 -29 0 -36 4 -36 19 0 26 -65 34 -82 9 -11 -15 -14 -15 -30 -1 -21
18 -50 26 -75 20z"/>
<path d="M14575 10712 c-6 -4 -18 -19 -28 -34 -18 -29 -43 -29 -60 -1 -7 12
-12 12 -27 -2 -16 -15 -18 -14 -23 5 -3 11 -11 20 -17 20 -9 0 -9 -4 1 -16 10
-13 10 -17 -2 -25 -12 -8 -12 -10 1 -19 19 -13 110 -10 127 3 9 6 23 5 42 -3
16 -6 48 -13 72 -16 24 -2 58 -6 75 -8 29 -5 31 -3 28 21 -3 31 -23 46 -41 32
-7 -6 -17 -8 -22 -5 -5 4 -12 2 -15 -3 -10 -16 -42 -1 -65 30 -23 30 -29 33
-46 21z"/>
<path d="M13580 10699 c0 -5 5 -7 10 -4 6 3 10 8 10 11 0 2 -4 4 -10 4 -5 0
-10 -5 -10 -11z"/>
<path d="M13925 10700 c3 -5 11 -10 16 -10 6 0 7 5 4 10 -3 6 -11 10 -16 10
-6 0 -7 -4 -4 -10z"/>
<path d="M14710 10700 c0 -5 5 -10 10 -10 6 0 10 5 10 10 0 6 -4 10 -10 10 -5
0 -10 -4 -10 -10z"/>
<path d="M13780 10690 c0 -5 5 -10 10 -10 6 0 10 5 10 10 0 6 -4 10 -10 10 -5
0 -10 -4 -10 -10z"/>
<path d="M14965 10681 c-3 -5 -19 -8 -35 -6 -17 2 -30 0 -30 -5 0 -6 12 -10
26 -10 16 0 38 -13 61 -37 20 -21 40 -37 45 -35 5 1 31 3 59 3 34 1 49 6 49
15 0 8 -10 14 -25 14 -13 0 -29 8 -35 18 -11 16 -11 16 -6 0 4 -14 0 -18 -19
-18 -14 0 -25 5 -25 10 0 6 -7 10 -15 10 -18 0 -20 16 -2 23 9 4 8 8 -3 16
-19 13 -37 14 -45 2z"/>
<path d="M14790 10664 c0 -11 98 -40 107 -30 3 3 1 12 -5 19 -7 8 -9 17 -6 20
4 4 -16 5 -45 4 -28 -1 -51 -7 -51 -13z"/>
<path d="M14348 10634 c13 -9 30 -13 40 -9 14 5 14 7 2 15 -8 6 -26 10 -40 10
l-24 0 22 -16z"/>
<path d="M15437 10626 c-6 -16 2 -28 14 -20 12 7 11 34 0 34 -5 0 -11 -6 -14
-14z"/>
<path d="M15167 10616 c-8 -19 14 -26 76 -25 29 1 43 3 32 6 -11 3 -24 9 -29
14 -15 13 -28 11 -19 -3 4 -7 -5 -5 -20 5 -32 21 -33 21 -40 3z"/>
<path d="M15547 10613 c-15 -14 -6 -23 24 -23 27 0 30 2 19 15 -13 16 -32 19
-43 8z"/>
<path d="M15480 10590 c0 -11 5 -20 10 -20 6 0 10 9 10 20 0 11 -4 20 -10 20
-5 0 -10 -9 -10 -20z"/>
<path d="M14657 10443 c4 -10 14 -23 22 -30 14 -11 13 -12 -7 -13 -16 0 -23
-5 -21 -17 3 -38 -2 -48 -13 -23 -6 14 -10 29 -9 33 3 13 -22 2 -27 -11 -2 -7
3 -12 12 -12 9 0 16 -8 16 -17 0 -13 -3 -14 -12 -5 -17 17 -29 15 -22 -3 4 -8
1 -15 -5 -15 -11 0 -16 19 -13 53 2 21 -14 23 -22 2 -3 -9 -19 -15 -38 -15
l-33 -1 25 -14 c14 -8 19 -14 11 -15 -7 0 -11 -6 -8 -14 7 -17 -21 -15 -67 3
-20 8 -32 9 -40 1 -7 -7 -5 -10 7 -10 9 0 17 -5 17 -11 0 -5 4 -8 9 -5 5 4 20
2 33 -4 19 -8 16 -8 -16 -5 -31 3 -46 -1 -67 -19 -15 -13 -25 -26 -22 -29 11
-12 -92 -34 -123 -27 -18 4 -70 6 -116 3 -128 -7 -201 -3 -215 11 -11 11 -41
6 -47 -6 -3 -10 -8 -9 -15 3 -6 9 -28 20 -48 24 -21 4 -44 11 -50 17 -10 8
-13 6 -13 -6 0 -9 5 -16 12 -16 6 0 8 -3 5 -6 -4 -4 -13 -2 -21 5 -8 7 -30 9
-57 5 -29 -4 -39 -2 -30 4 19 13 2 21 -55 23 -27 2 -63 9 -81 16 -47 19 -53
15 -13 -8 l35 -20 -48 6 c-27 4 -74 8 -105 10 -31 2 -68 6 -82 9 -14 4 -32 2
-40 -4 -13 -9 -13 -11 0 -20 8 -5 37 -14 65 -20 27 -7 57 -14 65 -17 25 -10
-29 -20 -97 -19 -39 1 -59 -2 -53 -8 13 -13 13 -53 -1 -62 -6 -3 -24 3 -40 15
-35 26 -46 26 -84 1 -16 -11 -38 -20 -47 -20 -30 0 -29 -19 2 -46 23 -21 27
-30 18 -36 -8 -6 -5 -7 10 -3 15 4 24 1 28 -10 4 -9 13 -14 21 -10 12 4 14 -1
11 -24 -4 -27 -2 -28 18 -21 16 6 26 5 34 -6 16 -19 28 -18 33 4 4 15 5 15 6
-2 1 -11 6 -16 15 -13 10 4 13 1 9 -9 -4 -11 5 -14 39 -14 24 0 49 -5 56 -12
9 -9 12 -8 12 5 0 9 5 17 10 17 6 0 10 -7 10 -15 0 -19 5 -19 35 1 23 15 25
15 25 0 0 -15 10 -17 70 -13 47 3 70 1 70 -7 0 -7 3 -7 8 -1 4 6 14 10 23 10
19 0 51 -24 45 -34 -3 -4 30 -8 72 -9 42 -2 98 -4 123 -5 34 -1 45 -5 42 -14
-3 -8 3 -13 18 -13 13 0 35 -3 48 -7 19 -5 22 -3 16 8 -8 12 -6 12 8 1 12 -10
37 -12 94 -8 110 8 107 8 123 4 8 -2 14 3 12 10 -3 15 15 16 20 1 2 -7 18 -13
35 -14 25 -2 30 1 25 14 -5 14 -4 14 11 2 10 -8 20 -11 24 -8 3 4 12 2 19 -4
8 -6 21 -9 29 -5 11 4 14 2 9 -6 -5 -8 2 -9 24 -5 18 4 32 3 32 -2 0 -5 17 -7
38 -5 125 15 152 16 152 7 0 -5 13 -8 29 -5 20 3 28 8 24 18 -3 8 1 14 11 14
9 0 19 -6 22 -14 4 -11 26 -13 107 -9 56 3 109 5 117 5 8 0 28 2 44 5 22 4 25
7 15 15 -11 7 -9 9 6 7 41 -3 55 1 55 18 0 12 3 14 11 6 7 -7 21 -8 39 -3 16
5 31 6 34 2 7 -6 57 18 69 33 4 6 10 5 16 -4 8 -12 11 -9 16 11 8 33 0 48 -26
48 -10 0 -19 4 -19 9 0 4 -22 19 -49 32 -27 13 -47 28 -44 34 3 5 0 4 -8 -2
-15 -15 -43 -17 -34 -4 3 6 -13 13 -35 18 -66 13 -51 27 45 41 187 27 325 54
319 63 -3 5 2 9 10 9 24 0 96 31 96 41 0 5 -7 9 -16 9 -10 0 -14 5 -10 15 4
13 2 13 -14 5 -10 -5 -26 -7 -34 -4 -13 5 -15 2 -9 -12 5 -15 4 -17 -8 -8 -19
16 -60 10 -70 -9 -12 -20 -84 -21 -104 -1 -8 8 -16 10 -19 5 -4 -5 -1 -11 6
-13 8 -3 9 -6 1 -11 -5 -3 -19 1 -29 9 -10 9 -13 13 -6 9 17 -9 15 3 -3 21 -8
9 -15 11 -15 6 0 -6 -9 -8 -21 -5 -12 3 -18 11 -15 19 3 8 3 14 0 14 -9 0 -30
-24 -37 -43 -7 -18 -27 -15 -27 4 0 6 5 7 10 4 6 -3 10 1 10 9 0 9 -7 16 -15
16 -8 0 -15 7 -15 15 0 9 6 12 15 9 8 -4 15 -10 15 -16 0 -5 5 -6 11 -2 7 4 7
10 1 16 -6 6 -8 17 -5 26 4 10 2 13 -5 8 -6 -4 -25 5 -42 20 -22 20 -27 30
-18 36 9 5 6 8 -10 8 -12 0 -30 -5 -41 -11 -22 -14 -84 -4 -101 16 -7 8 -21
15 -32 15 -14 0 -18 5 -15 15 8 18 -13 32 -23 15 -4 -7 -13 -9 -19 -6 -16 11
-13 -20 4 -37 13 -13 13 -16 -1 -21 -8 -3 -17 1 -20 9 -4 8 -10 12 -15 9 -5
-3 -6 2 -3 10 4 11 0 16 -10 16 -9 0 -16 -8 -16 -20 0 -11 -5 -20 -11 -20 -5
0 -7 -4 -4 -10 3 -5 -3 -10 -14 -10 -16 0 -21 6 -21 29 0 16 -6 31 -15 35 -8
3 -14 11 -13 17 2 6 -3 14 -10 16 -8 3 -10 -1 -5 -14z m189 -37 c20 -21 17
-28 -6 -14 -11 7 -20 16 -20 20 0 12 10 9 26 -6z m179 -36 c-3 -5 1 -10 9 -10
18 0 20 -8 7 -28 -6 -10 -10 -10 -21 2 -11 15 -8 46 5 46 4 0 3 -4 0 -10z
m455 -134 c0 -3 -4 -8 -10 -11 -5 -3 -10 -1 -10 4 0 6 5 11 10 11 6 0 10 -2
10 -4z m-190 -42 c0 -2 -7 -4 -15 -4 -8 0 -15 4 -15 10 0 5 7 7 15 4 8 -4 15
-8 15 -10z m-70 -4 c0 -5 -2 -10 -4 -10 -3 0 -8 5 -11 10 -3 6 -1 10 4 10 6 0
11 -4 11 -10z m-2083 -116 c-3 -3 -12 -4 -19 -1 -8 3 -5 6 6 6 11 1 17 -2 13
-5z m903 -204 c0 -5 -2 -10 -4 -10 -3 0 -8 5 -11 10 -3 6 -1 10 4 10 6 0 11
-4 11 -10z"/>
<path d="M14520 10389 c0 -5 5 -7 10 -4 6 3 10 8 10 11 0 2 -4 4 -10 4 -5 0
-10 -5 -10 -11z"/>
<path d="M14465 10360 c-3 -5 -2 -17 3 -26 6 -11 11 -13 16 -5 4 6 2 11 -4 11
-7 0 -10 7 -6 15 6 17 0 20 -9 5z"/>
<path d="M13985 10300 c-3 -5 3 -10 15 -10 12 0 18 5 15 10 -3 6 -10 10 -15
10 -5 0 -12 -4 -15 -10z"/>
<path d="M13180 10280 c8 -5 24 -10 35 -10 17 0 17 2 5 10 -8 5 -24 10 -35 10
-17 0 -17 -2 -5 -10z"/>
<path d="M14298 10283 c7 -3 16 -2 19 1 4 3 -2 6 -13 5 -11 0 -14 -3 -6 -6z"/>
<path d="M14330 10279 c0 -5 9 -9 19 -9 11 0 22 4 25 9 3 5 -6 9 -19 9 -14 0
-25 -4 -25 -9z"/>
<path d="M13956 10261 c-8 -12 33 -19 64 -11 22 5 23 7 7 13 -26 10 -65 9 -71
-2z"/>
<path d="M15215 10260 c3 -5 11 -10 16 -10 6 0 7 5 4 10 -3 6 -11 10 -16 10
-6 0 -7 -4 -4 -10z"/>
<path d="M14330 10250 c0 -5 5 -10 10 -10 6 0 10 5 10 10 0 6 -4 10 -10 10 -5
0 -10 -4 -10 -10z"/>
<path d="M12955 10140 c-10 -16 19 -22 48 -11 15 6 27 13 27 16 0 10 -69 5
-75 -5z"/>
<path d="M13200 9450 c0 -5 5 -10 10 -10 6 0 10 5 10 10 0 6 -4 10 -10 10 -5
0 -10 -4 -10 -10z"/>
<path d="M12770 9406 c0 -7 7 -19 15 -26 16 -13 20 -3 9 24 -8 20 -24 21 -24
2z"/>
<path d="M12856 9366 c3 -9 11 -16 16 -16 13 0 5 23 -10 28 -7 2 -10 -2 -6
-12z"/>
<path d="M12908 9345 c4 -36 32 -72 32 -42 0 9 -5 19 -11 23 -8 4 -8 9 0 17 7
7 7 14 0 24 -19 22 -25 15 -21 -22z"/>
<path d="M13030 9332 c0 -6 8 -10 18 -10 25 2 92 -22 92 -33 0 -5 3 -8 8 -8
22 4 34 -3 28 -16 -6 -17 2 -45 15 -45 14 0 2 72 -13 81 -13 7 -43 16 -125 36
-13 3 -23 1 -23 -5z"/>
<path d="M13096 9286 c3 -9 11 -16 16 -16 13 0 5 23 -10 28 -7 2 -10 -2 -6
-12z"/>
<path d="M13040 9279 c0 -5 5 -7 10 -4 6 3 10 8 10 11 0 2 -4 4 -10 4 -5 0
-10 -5 -10 -11z"/>
<path d="M13210 9281 c0 -5 7 -11 15 -15 8 -3 15 -13 15 -22 0 -11 6 -15 20
-11 11 3 20 1 20 -5 0 -6 7 -8 15 -4 8 3 15 1 15 -4 0 -6 -7 -10 -16 -10 -11
0 -14 -6 -8 -22 8 -27 23 -48 35 -48 4 0 15 7 24 16 12 13 13 19 4 24 -14 9
-15 58 -1 72 7 7 14 3 23 -13 7 -13 11 -26 9 -29 -2 -3 4 -6 13 -8 11 -2 17 3
17 14 0 16 3 15 23 -4 20 -19 67 -27 67 -11 0 10 -27 30 -36 27 -15 -4 -82 22
-94 38 -7 8 -30 14 -52 14 -35 0 -39 -2 -28 -15 11 -13 8 -15 -14 -15 -15 0
-31 8 -38 20 -13 21 -28 27 -28 11z"/>
<path d="M15897 9274 c-4 -4 -7 -14 -7 -23 0 -11 3 -12 11 -4 6 6 10 16 7 23
-2 6 -7 8 -11 4z"/>
<path d="M12814 9255 c-9 -22 1 -29 15 -11 8 10 9 16 1 21 -5 3 -13 -1 -16
-10z"/>
<path d="M12915 9250 c-11 -4 -30 -6 -41 -4 -18 3 -23 -2 -26 -26 -3 -17 -1
-30 4 -30 4 0 8 5 8 10 0 6 8 10 18 10 15 0 18 -9 17 -62 -1 -35 -5 -76 -10
-91 -7 -26 -8 -26 -22 -10 -13 16 -13 15 -7 -16 4 -23 3 -31 -5 -27 -17 11
-13 -20 4 -34 8 -7 15 -21 15 -32 0 -10 8 -21 18 -25 9 -3 33 -13 52 -21 35
-14 35 -15 10 -21 l-25 -7 25 -7 c36 -10 52 -9 45 3 -3 6 -2 10 3 10 6 0 12
-7 16 -15 3 -8 10 -15 16 -15 6 0 8 5 5 10 -10 16 57 2 69 -15 10 -13 92 -30
241 -50 28 -4 113 -9 190 -10 77 -2 199 -8 270 -14 237 -19 1092 -10 1370 13
28 3 93 8 145 12 102 7 120 12 99 25 -11 7 -10 9 4 9 9 0 17 -4 17 -8 0 -5 14
-7 30 -4 17 2 30 8 30 13 0 5 12 9 28 9 32 1 118 23 128 33 4 4 -3 6 -17 5
-38 -5 -30 25 11 39 26 9 29 12 13 12 -16 1 -29 13 -42 40 -20 38 -21 39 -58
30 -117 -29 -377 -48 -403 -29 -13 9 -12 12 5 25 11 9 25 13 32 11 20 -8 16
31 -4 43 -33 19 5 40 75 43 52 2 66 -1 73 -15 11 -19 44 -23 54 -7 3 6 -1 10
-9 10 -11 0 -16 9 -16 27 0 25 -1 25 -19 9 -16 -15 -19 -15 -31 -1 -9 11 -15
12 -20 5 -5 -8 -15 -8 -34 0 -33 12 -60 12 -31 0 17 -7 14 -9 -15 -10 -19 -1
-43 -2 -52 -1 -21 3 -23 -10 -6 -27 9 -9 7 -12 -11 -12 -12 0 -19 4 -16 10 3
6 1 10 -5 10 -8 0 -9 -7 -5 -17 8 -20 9 -28 7 -61 -1 -13 -7 -20 -12 -17 -6 4
-8 11 -5 16 4 5 -1 17 -11 26 -15 15 -15 17 -1 22 12 4 14 10 7 21 -7 12 -12
12 -22 2 -18 -18 -38 -14 -38 8 0 11 5 20 11 20 5 0 8 4 4 9 -3 5 -16 -1 -30
-15 -30 -30 -80 -34 -72 -5 3 12 -1 22 -10 25 -9 4 -13 0 -11 -12 4 -24 -10
-42 -27 -36 -10 4 -18 -3 -25 -20 -8 -22 -13 -25 -29 -17 -22 13 -35 41 -18
41 8 0 8 3 -2 9 -8 5 -11 16 -8 24 4 11 -2 19 -16 23 -33 12 -59 5 -85 -23
-17 -18 -29 -23 -46 -19 -15 4 -28 0 -36 -9 -7 -8 -19 -15 -27 -15 -14 0 -13
11 4 56 2 7 0 15 -6 19 -6 3 -11 -1 -11 -10 0 -11 -5 -15 -15 -11 -8 3 -15 1
-15 -4 0 -6 -10 -10 -22 -10 -21 -1 -22 -2 -6 -14 39 -29 -22 -25 -69 5 -17
10 -25 10 -36 1 -15 -13 -27 -6 -27 15 0 7 11 13 24 13 14 0 28 5 31 10 4 6
-8 10 -29 10 -19 0 -41 3 -50 6 -11 4 -16 1 -16 -10 0 -20 -14 -20 -44 -1 -13
9 -35 14 -48 11 -13 -2 -31 2 -41 9 -9 7 -28 10 -42 8 -21 -5 -22 -7 -10 -20
8 -8 20 -11 26 -7 8 4 7 0 -1 -15 -9 -18 -9 -22 2 -20 7 1 21 -2 32 -6 10 -5
26 -4 35 2 27 17 41 5 34 -30 -6 -29 -5 -31 10 -18 9 7 17 20 17 27 0 8 7 14
15 14 8 0 15 -4 15 -10 0 -5 -4 -10 -9 -10 -5 0 -7 -9 -4 -20 6 -23 23 -27 23
-5 0 21 25 29 47 16 16 -9 14 -11 -12 -11 -24 -1 -26 -3 -11 -9 23 -9 66 -2
66 10 0 14 22 10 41 -7 15 -13 23 -14 54 -4 20 7 39 10 42 7 9 -10 -8 -27 -28
-27 -10 0 -19 -7 -19 -15 0 -11 13 -15 48 -17 l47 -1 -44 -4 c-24 -3 -50 -11
-59 -19 -10 -11 -27 -13 -61 -9 -25 3 -75 10 -111 15 -36 4 -78 8 -95 9 -32 0
-162 16 -260 31 -33 5 -96 14 -140 20 -44 6 -102 15 -130 20 -27 5 -79 12
-115 15 -36 4 -78 10 -95 15 -16 5 -70 14 -120 20 -49 7 -101 14 -114 17 -18
4 -22 3 -16 -7 4 -7 2 -16 -6 -21 -23 -15 -39 -10 -48 14 -7 17 -22 25 -66 34
-63 14 -75 11 -75 -15 1 -16 2 -16 14 0 7 10 16 15 19 11 12 -11 8 -23 -8 -23
-10 0 -15 -10 -15 -27 0 -36 -14 -19 -16 19 -1 17 -7 34 -14 38 -7 4 -10 12
-7 18 8 12 -29 46 -42 38 -5 -4 -17 4 -26 16 -12 19 -17 20 -24 9 -7 -11 -14
-9 -33 11 -17 18 -28 23 -43 18z m155 -110 c0 -5 -4 -10 -9 -10 -6 0 -13 5
-16 10 -3 6 1 10 9 10 9 0 16 -4 16 -10z m17 -42 c-3 -8 -6 -5 -6 6 -1 11 2
17 5 13 3 -3 4 -12 1 -19z m1733 12 c0 -5 -4 -10 -10 -10 -5 0 -10 5 -10 10 0
6 5 10 10 10 6 0 10 -4 10 -10z m-1360 -56 c0 -6 -13 -23 -30 -37 -22 -20 -30
-23 -30 -12 0 8 5 15 11 15 6 0 8 9 4 21 -6 19 -4 21 16 16 22 -5 22 -5 7 7
-25 18 -23 29 2 14 11 -7 20 -18 20 -24z m1325 5 c-4 -5 -1 -9 4 -9 6 0 11 5
11 10 0 6 5 10 10 10 6 0 10 -8 10 -18 0 -15 -6 -17 -35 -14 -37 4 -42 11 -23
30 13 13 32 6 23 -9z m-1590 -17 c-3 -3 -11 0 -18 7 -9 10 -8 11 6 5 10 -3 15
-9 12 -12z m1790 -42 c8 -13 -5 -13 -25 0 -13 8 -13 10 2 10 9 0 20 -4 23 -10z
m-1593 -62 c-7 -7 -12 -8 -12 -2 0 14 12 26 19 19 2 -3 -1 -11 -7 -17z m1778
2 c0 -5 -5 -10 -11 -10 -5 0 -7 5 -4 10 3 6 8 10 11 10 2 0 4 -4 4 -10z
m-1941 -116 c2 -2 -14 -4 -37 -4 -22 0 -43 4 -46 9 -6 8 73 3 83 -5z m54 -11
c-7 -2 -19 -2 -25 0 -7 3 -2 5 12 5 14 0 19 -2 13 -5z"/>
<path d="M13110 9251 c0 -5 5 -13 10 -16 6 -3 10 -2 10 4 0 5 -4 13 -10 16 -5
3 -10 2 -10 -4z"/>
<path d="M13490 9241 c0 -5 5 -13 10 -16 6 -3 10 -2 10 4 0 5 -4 13 -10 16 -5
3 -10 2 -10 -4z"/>
<path d="M13549 9231 c11 -7 9 -10 -9 -13 -28 -4 -39 -28 -13 -28 10 0 30 -7
46 -14 16 -9 27 -11 27 -4 0 6 9 8 23 3 39 -12 62 -13 75 -2 15 12 25 4 29
-26 4 -24 50 -77 68 -77 17 0 77 59 70 70 -3 5 -1 10 4 10 6 0 11 -4 11 -10 0
-5 3 -9 8 -8 4 1 17 -3 29 -10 12 -6 29 -9 37 -6 11 4 16 1 16 -10 0 -9 13
-25 30 -34 16 -9 30 -23 30 -29 0 -15 10 -16 30 -3 9 6 10 10 3 10 -8 0 -7 9
3 30 9 17 19 30 22 30 14 -1 42 -28 42 -41 0 -10 3 -10 12 -1 7 7 17 12 22 12
6 0 4 -4 -4 -10 -23 -14 -9 -19 35 -10 30 5 36 9 23 15 -10 4 -18 16 -18 27 0
18 -5 20 -35 15 -35 -6 -57 6 -30 17 31 11 16 36 -22 38 -21 0 -54 2 -73 4
-64 6 -75 5 -78 -6 -2 -5 -11 -10 -19 -10 -9 0 -13 6 -10 14 4 11 -6 15 -44
18 -48 3 -67 -6 -31 -15 10 -3 5 -5 -12 -6 -20 -1 -27 3 -23 13 7 17 -22 31
-35 18 -6 -6 -25 -6 -45 -2 -19 5 -55 6 -80 4 -42 -4 -44 -3 -38 18 6 21 5 22
-8 6 -17 -22 -37 -23 -37 -3 0 9 -9 15 -22 15 -18 0 -20 -2 -9 -9z"/>
<path d="M15845 9220 c3 -5 8 -10 11 -10 2 0 4 5 4 10 0 6 -5 10 -11 10 -5 0
-7 -4 -4 -10z"/>
<path d="M13115 9210 c-3 -5 -1 -10 4 -10 6 0 11 5 11 10 0 6 -2 10 -4 10 -3
0 -8 -4 -11 -10z"/>
<path d="M14490 9209 c0 -5 5 -7 10 -4 6 3 10 8 10 11 0 2 -4 4 -10 4 -5 0
-10 -5 -10 -11z"/>
<path d="M12868 9178 c-6 -18 2 -48 13 -48 5 0 6 12 3 28 -8 34 -11 37 -16 20z"/>
<path d="M15656 9182 c-3 -5 3 -16 14 -24 19 -17 32 -6 23 20 -5 14 -29 16
-37 4z"/>
<path d="M15710 9180 c0 -12 8 -12 35 0 18 8 17 9 -7 9 -16 1 -28 -3 -28 -9z"/>
<path d="M13482 9151 c4 -13 18 -16 19 -4 0 4 -5 9 -11 12 -7 2 -11 -2 -8 -8z"/>
<path d="M12850 9136 c0 -8 4 -17 9 -20 5 -4 7 3 4 14 -6 23 -13 26 -13 6z"/>
<path d="M14684 9125 c1 -23 2 -24 14 -8 16 22 15 33 -2 33 -9 0 -13 -10 -12
-25z"/>
<path d="M15497 9143 c-4 -3 -7 -13 -7 -21 0 -8 -8 -21 -17 -28 -12 -9 -14
-13 -5 -14 17 0 5 -20 -13 -20 -8 0 -11 7 -8 20 6 24 -24 28 -34 4 -8 -22 8
-34 50 -36 20 -1 37 -6 37 -11 0 -5 9 2 20 16 11 14 20 35 20 47 0 16 4 20 16
16 8 -3 12 -2 9 4 -3 6 -13 10 -21 10 -8 0 -14 5 -14 10 0 11 -23 14 -33 3z"/>
<path d="M14527 9134 c-8 -8 1 -24 14 -24 5 0 9 7 9 15 0 15 -12 20 -23 9z"/>
<path d="M13620 9116 c0 -9 5 -16 10 -16 6 0 10 4 10 9 0 6 -4 13 -10 16 -5 3
-10 -1 -10 -9z"/>
<path d="M13680 9120 c0 -12 40 -34 48 -26 3 3 0 6 -6 6 -7 0 -12 7 -12 15 0
8 -7 15 -15 15 -8 0 -15 -4 -15 -10z"/>
<path d="M15325 9120 c-3 -5 -1 -10 4 -10 6 0 11 5 11 10 0 6 -2 10 -4 10 -3
0 -8 -4 -11 -10z"/>
<path d="M14893 9113 c9 -2 17 -11 17 -19 0 -8 8 -14 18 -13 10 0 12 3 5 6 -7
2 -13 11 -13 19 0 8 -9 14 -22 13 -17 -1 -19 -2 -5 -6z"/>
<path d="M14870 9086 c0 -9 7 -16 16 -16 17 0 14 22 -4 28 -7 2 -12 -3 -12
-12z"/>
<path d="M13877 9082 c-10 -2 -16 -9 -14 -15 4 -14 47 -23 47 -10 0 17 -16 29
-33 25z"/>
<path d="M14223 9028 c-1 -10 3 -18 9 -16 18 6 21 25 5 31 -8 3 -13 -3 -14
-15z"/>
<path d="M14270 9035 c0 -11 35 -45 47 -45 18 0 16 14 -5 33 -18 16 -42 23
-42 12z"/>
<path d="M14415 8990 c-3 -5 3 -10 14 -10 12 0 21 5 21 10 0 6 -6 10 -14 10
-8 0 -18 -4 -21 -10z"/>
<path d="M13068 8833 c7 -3 16 -2 19 1 4 3 -2 6 -13 5 -11 0 -14 -3 -6 -6z"/>
<path d="M12610 8814 c-24 -13 -24 -14 -4 -14 12 0 24 7 28 15 3 8 4 15 3 14
-1 -1 -13 -7 -27 -15z"/>
<path d="M12902 8809 c3 -18 -1 -30 -14 -38 -10 -6 -16 -16 -12 -22 3 -6 -3
-13 -14 -16 -11 -3 -23 -12 -26 -20 -5 -13 0 -15 33 -9 25 4 48 1 66 -8 29
-15 65 -11 65 8 0 6 -11 23 -25 38 -14 15 -25 34 -25 43 0 9 -4 14 -9 10 -5
-3 -17 5 -26 17 l-17 23 4 -26z"/>
<path d="M12606 8781 c-4 -7 -5 -15 -2 -18 9 -9 19 4 14 18 -4 11 -6 11 -12 0z"/>
<path d="M12680 8771 c0 -12 6 -21 15 -21 8 0 15 4 15 9 0 5 -7 14 -15 21 -13
10 -15 9 -15 -9z"/>
<path d="M15750 8737 c0 -16 6 -23 19 -23 17 0 17 2 4 23 -9 13 -17 23 -19 23
-2 0 -4 -10 -4 -23z"/>
<path d="M15270 8740 c0 -5 5 -10 10 -10 6 0 10 5 10 10 0 6 -4 10 -10 10 -5
0 -10 -4 -10 -10z"/>
<path d="M14829 8722 c-21 -2 -26 -8 -26 -33 0 -52 -47 -68 -58 -19 -4 17 -13
30 -20 30 -19 0 -27 -30 -10 -36 34 -13 13 -26 -35 -22 -39 4 -50 2 -55 -11
-6 -14 -8 -14 -19 1 -7 10 -16 15 -19 11 -4 -3 -16 2 -27 12 -11 10 -23 15
-27 12 -4 -4 2 -14 13 -23 18 -14 14 -15 -42 -9 -61 6 -62 6 -67 -22 -7 -37
-4 -38 40 -25 25 7 56 8 93 2 83 -13 84 -13 103 -12 10 1 17 8 16 15 -4 31 1
40 15 27 8 -6 13 -17 10 -24 -8 -21 27 -28 52 -11 13 9 24 22 24 31 0 8 13 20
30 25 16 6 29 14 28 17 -1 4 2 20 7 35 9 33 8 33 -26 29z"/>
<path d="M13226 8705 c-4 -11 -13 -14 -31 -9 -16 4 -25 2 -25 -6 0 -7 -7 -10
-15 -6 -8 3 -21 3 -29 0 -17 -6 -11 -30 7 -31 7 -1 38 -2 70 -3 31 -2 60 -6
62 -10 3 -4 23 -4 46 1 22 5 45 6 52 2 6 -4 38 -8 72 -10 73 -5 128 -10 178
-19 30 -5 36 -3 32 8 -3 8 -19 22 -36 32 -21 13 -28 23 -24 34 5 13 4 14 -6 5
-9 -9 -18 -9 -31 -2 -13 7 -23 7 -32 0 -9 -7 -16 -7 -23 0 -8 8 -17 8 -31 0
-11 -6 -30 -11 -41 -11 -12 0 -21 -5 -21 -11 0 -15 -50 -2 -72 18 -16 15 -18
15 -18 -1 0 -25 -43 -16 -55 12 -11 26 -21 28 -29 7z"/>
<path d="M13754 8690 c3 -17 1 -30 -4 -30 -6 0 -10 5 -10 10 0 6 -6 10 -14 10
-8 0 -14 -8 -14 -17 0 -10 -3 -27 -8 -38 -6 -17 -5 -18 7 -8 15 12 72 11 102
-1 11 -5 17 -4 17 4 0 7 9 2 20 -11 14 -17 20 -20 20 -9 1 20 46 70 63 70 8 0
19 11 25 25 11 24 10 25 -7 15 -11 -5 -32 -10 -46 -10 -21 0 -26 -4 -21 -16 4
-10 -1 -25 -9 -34 -23 -25 -67 -12 -72 20 -6 42 -11 50 -34 50 -19 0 -21 -4
-15 -30z"/>
<path d="M14115 8710 c-19 -8 -19 -9 3 -9 12 -1 22 4 22 9 0 6 -1 10 -2 9 -2
0 -12 -4 -23 -9z"/>
<path d="M12784 8694 c3 -9 6 -18 6 -21 0 -3 7 0 15 7 13 11 13 15 3 21 -21
13 -31 10 -24 -7z"/>
<path d="M13430 8700 c0 -5 7 -7 15 -4 8 4 15 8 15 10 0 2 -7 4 -15 4 -8 0
-15 -4 -15 -10z"/>
<path d="M14406 8695 c4 -8 8 -15 10 -15 2 0 4 7 4 15 0 8 -4 15 -10 15 -5 0
-7 -7 -4 -15z"/>
<path d="M15567 8692 c-20 -22 -21 -32 -6 -32 12 0 38 29 39 43 0 13 -17 7
-33 -11z"/>
<path d="M13645 8691 c-3 -5 -1 -12 5 -16 5 -3 10 1 10 9 0 18 -6 21 -15 7z"/>
<path d="M13825 8690 c-3 -5 -1 -10 4 -10 6 0 11 5 11 10 0 6 -2 10 -4 10 -3
0 -8 -4 -11 -10z"/>
<path d="M14282 8674 c-20 -27 -23 -28 -36 -11 -16 21 -42 22 -49 3 -3 -8 -3
-30 0 -49 4 -29 2 -35 -16 -40 -12 -3 -24 -1 -27 5 -4 6 -24 8 -45 5 -29 -4
-39 -1 -39 8 0 8 5 17 10 20 6 4 5 12 -4 21 -20 19 -36 18 -36 -3 -1 -17 -2
-17 -15 1 -11 15 -19 16 -42 8 -15 -6 -22 -11 -15 -11 7 -1 11 -5 8 -10 -3 -4
3 -16 15 -26 19 -18 76 -27 174 -28 22 0 43 -5 47 -11 12 -18 20 1 9 22 -15
29 -3 62 25 62 12 0 26 -5 30 -11 3 -6 22 -17 40 -25 19 -8 34 -19 34 -24 0
-16 47 -11 54 6 10 25 7 34 -9 28 -10 -4 -15 0 -15 15 0 16 -6 21 -25 21 -14
0 -25 4 -25 8 0 5 -6 16 -13 26 -13 17 -15 17 -35 -10z"/>
<path d="M14463 8685 c-8 -22 16 -36 40 -24 23 13 17 33 -11 37 -14 2 -25 -3
-29 -13z"/>
<path d="M13040 8675 c0 -8 5 -15 10 -15 6 0 10 7 10 15 0 8 -4 15 -10 15 -5
0 -10 -7 -10 -15z"/>
<path d="M14951 8676 c-8 -9 -20 -16 -28 -16 -13 0 -13 -3 -3 -15 7 -8 19 -15
26 -15 7 0 23 -13 36 -30 27 -37 38 -38 38 -4 0 19 -4 25 -15 20 -11 -4 -15 1
-15 17 0 13 -6 31 -13 41 -12 16 -14 16 -26 2z"/>
<path d="M15419 8680 c-9 -5 -33 -12 -54 -14 -42 -5 -50 -11 -60 -43 -5 -19
-2 -23 15 -23 16 0 20 4 15 19 -5 15 2 19 42 25 27 3 51 2 57 -4 17 -17 34
-11 29 10 -7 28 -25 40 -44 30z"/>
<path d="M15174 8638 c3 -17 6 -34 6 -39 0 -5 7 -9 16 -9 11 0 15 6 11 19 -4
17 -1 19 29 14 19 -3 34 -2 34 3 -1 23 -22 37 -60 40 l-42 3 6 -31z"/>
<path d="M15284 8649 c0 -10 4 -19 8 -19 4 0 8 6 8 14 0 8 -4 17 -8 20 -4 2
-8 -4 -8 -15z"/>
<path d="M15076 8628 c-15 -8 -16 -12 -5 -19 21 -13 39 -11 39 5 0 21 -13 26
-34 14z"/>
<path d="M13366 8601 c-4 -7 -5 -15 -2 -18 9 -9 19 4 14 18 -4 11 -6 11 -12 0z"/>
<path d="M13880 8560 c0 -5 7 -10 16 -10 8 0 12 5 9 10 -3 6 -10 10 -16 10 -5
0 -9 -4 -9 -10z"/>
<path d="M13968 8553 c7 -3 16 -2 19 1 4 3 -2 6 -13 5 -11 0 -14 -3 -6 -6z"/>
<path d="M14480 8500 c0 -5 5 -10 10 -10 6 0 10 5 10 10 0 6 -4 10 -10 10 -5
0 -10 -4 -10 -10z"/>
<path d="M14515 8340 c-3 -5 -1 -10 4 -10 6 0 11 5 11 10 0 6 -2 10 -4 10 -3
0 -8 -4 -11 -10z"/>
<path d="M14415 8250 c-3 -5 1 -10 10 -10 9 0 13 5 10 10 -3 6 -8 10 -10 10
-2 0 -7 -4 -10 -10z"/>
<path d="M13117 8234 c-8 -8 31 -64 44 -64 5 0 22 -9 37 -20 15 -11 66 -26
117 -35 50 -9 104 -23 120 -30 29 -13 168 -35 250 -40 22 -1 65 -7 95 -13 30
-6 62 -10 70 -10 8 0 33 -3 55 -7 43 -8 59 -9 120 -6 22 2 77 0 122 -3 66 -5
85 -3 97 10 16 15 41 11 31 -6 -7 -12 18 -19 56 -14 19 2 106 6 194 9 88 3
174 10 190 15 27 9 85 15 213 24 24 1 47 8 51 14 4 7 26 13 49 14 23 1 42 5
42 9 0 4 19 6 43 5 30 -2 50 2 65 15 l22 18 -21 6 c-20 7 -20 8 -6 17 11 5 24
5 37 -2 12 -6 26 -9 33 -6 9 3 8 5 -1 5 -7 1 -11 5 -7 10 9 15 -33 33 -58 25
-32 -10 -177 -12 -183 -2 -10 15 -36 9 -30 -7 4 -12 0 -14 -17 -10 -35 9 -254
12 -337 5 -41 -3 -78 -2 -81 3 -3 5 -43 7 -88 5 -44 -1 -81 -1 -81 2 0 10
-165 6 -172 -5 -5 -6 -8 -5 -8 4 0 10 -13 12 -62 7 -35 -4 -101 -1 -148 5 -86
11 -175 17 -307 22 -40 1 -73 5 -73 9 0 3 -26 4 -57 1 -32 -3 -62 -5 -68 -4
-5 0 -44 3 -85 6 -41 3 -105 10 -142 15 -78 12 -112 13 -121 4z m30 -10 c-3
-3 -12 -4 -19 -1 -8 3 -5 6 6 6 11 1 17 -2 13 -5z"/>
<path d="M13095 8200 c-3 -5 -1 -10 4 -10 6 0 11 5 11 10 0 6 -2 10 -4 10 -3
0 -8 -4 -11 -10z"/>
<path d="M13540 7451 c25 -16 49 -26 55 -23 5 3 3 8 -5 10 -8 3 -23 13 -34 24
-11 10 -29 18 -40 18 -16 0 -9 -8 24 -29z"/>
<path d="M13815 7420 c-3 -5 1 -10 9 -10 9 0 16 5 16 10 0 6 -4 10 -9 10 -6 0
-13 -4 -16 -10z"/>
<path d="M14040 7405 c-11 -13 -8 -15 18 -15 17 0 39 -3 49 -6 14 -4 13 -1 -6
15 -28 25 -44 26 -61 6z"/>
<path d="M14475 7411 c-7 -12 31 -25 45 -16 6 4 8 11 5 16 -8 12 -42 12 -50 0z"/>
<path d="M14799 7404 c21 -15 26 -15 55 -1 l31 16 -55 0 c-53 1 -54 1 -31 -15z"/>
<path d="M14556 7402 c-5 -9 103 -36 111 -28 3 2 -9 12 -26 20 -32 17 -77 21
-85 8z"/>
<path d="M13696 7391 c-4 -5 -2 -12 3 -15 5 -4 12 -2 15 3 4 5 2 12 -3 15 -5
4 -12 2 -15 -3z"/>
<path d="M14880 7380 c0 -5 5 -10 10 -10 6 0 10 5 10 10 0 6 -4 10 -10 10 -5
0 -10 -4 -10 -10z"/>
<path d="M12658 7158 c5 -5 16 -8 23 -6 8 3 3 7 -10 11 -17 4 -21 3 -13 -5z"/>
<path d="M15536 7134 c-4 -9 -4 -19 -2 -21 8 -8 26 8 26 23 0 19 -16 18 -24
-2z"/>
<path d="M15496 7052 c-12 -20 21 -32 68 -26 25 4 46 10 46 14 0 15 -13 18
-46 8 -25 -6 -39 -6 -49 2 -8 6 -16 7 -19 2z"/>
<path d="M13595 6960 c-18 -8 -17 -9 8 -9 15 -1 27 4 27 9 0 12 -8 12 -35 0z"/>
<path d="M15255 6830 c-3 -5 -1 -10 4 -10 6 0 11 5 11 10 0 6 -2 10 -4 10 -3
0 -8 -4 -11 -10z"/>
<path d="M13890 6730 c0 -5 7 -10 16 -10 8 0 12 5 9 10 -3 6 -10 10 -16 10 -5
0 -9 -4 -9 -10z"/>
<path d="M12944 6511 c4 -6 15 -11 25 -11 10 0 30 -11 45 -25 15 -14 35 -26
44 -27 9 0 28 -2 42 -3 14 -2 39 -10 55 -19 17 -9 39 -16 51 -16 12 0 46 -13
77 -30 31 -16 70 -31 87 -32 17 -1 34 -6 36 -10 3 -5 10 -6 15 -3 5 4 44 -3
86 -15 42 -11 86 -20 97 -19 12 1 28 -1 36 -4 31 -12 231 -22 395 -20 94 1
195 2 225 1 475 -3 652 2 689 18 19 9 17 8 66 18 22 4 45 11 50 15 6 4 30 13
55 21 54 16 100 41 100 54 0 5 -29 6 -67 3 -440 -41 -716 -52 -918 -38 -262
18 -402 30 -550 47 -77 8 -174 18 -215 21 -41 3 -80 9 -85 14 -6 4 -20 8 -30
8 -40 -1 -160 14 -175 22 -9 4 -54 12 -100 19 -47 6 -98 13 -114 16 -19 4 -26
3 -22 -5z"/>
<path d="M13800 5770 c0 -5 7 -10 15 -10 8 0 15 5 15 10 0 6 -7 10 -15 10 -8
0 -15 -4 -15 -10z"/>
<path d="M13730 5746 c0 -9 37 -12 55 -5 15 6 11 8 -17 8 -21 1 -38 -1 -38 -3z"/>
<path d="M13940 5730 c0 -5 9 -10 21 -10 11 0 17 5 14 10 -3 6 -13 10 -21 10
-8 0 -14 -4 -14 -10z"/>
<path d="M14105 5731 c-6 -5 -19 -11 -30 -13 -18 -4 -18 -6 6 -17 21 -11 34
-10 70 3 24 8 42 16 39 16 -3 1 -14 3 -25 5 -11 1 -27 5 -35 9 -9 4 -20 2 -25
-3z"/>
<path d="M14200 5720 c0 -5 9 -14 20 -20 14 -7 20 -7 20 0 0 5 -6 10 -12 11
-7 0 -4 4 7 9 18 8 17 9 -7 9 -16 1 -28 -3 -28 -9z"/>
<path d="M14326 5696 c7 -18 39 -30 55 -21 14 9 1 21 -33 29 -22 5 -26 3 -22
-8z"/>
<path d="M13860 5690 c0 -5 5 -10 11 -10 5 0 7 5 4 10 -3 6 -8 10 -11 10 -2 0
-4 -4 -4 -10z"/>
<path d="M14630 5690 c0 -5 -11 -10 -25 -10 -32 0 -23 -27 14 -41 20 -8 22
-12 11 -19 -26 -17 1 -11 30 7 28 16 44 48 34 65 -7 12 -64 10 -64 -2z"/>
<path d="M14870 5690 c0 -5 -3 -15 -6 -23 -3 -8 2 -17 13 -21 9 -4 14 -4 10 0
-4 4 0 15 8 24 14 16 14 18 -5 23 -11 3 -20 1 -20 -3z"/>
<path d="M14200 5279 c-30 -3 -47 -6 -37 -7 9 -1 17 -6 17 -11 0 -5 43 -10 96
-10 93 0 96 1 78 18 -16 15 -21 16 -27 5 -4 -8 -13 -14 -20 -14 -7 0 -6 4 3
11 12 8 8 10 -17 6 -18 -2 -34 -1 -35 2 -2 3 -28 3 -58 0z"/>
<path d="M14500 5275 c-17 -21 -7 -29 36 -27 48 2 55 10 15 18 -23 5 -29 9
-19 15 10 7 9 9 -3 9 -9 0 -22 -7 -29 -15z"/>
<path d="M14895 5280 c-8 -13 15 -13 35 0 12 8 11 10 -7 10 -12 0 -25 -4 -28
-10z"/>
<path d="M14901 5101 c-8 -15 -7 -20 5 -25 25 -10 62 -7 70 5 8 14 -4 25 -38
33 -21 5 -30 2 -37 -13z"/>
<path d="M13770 5094 c-19 -7 -33 -13 -30 -14 31 -8 50 -8 50 1 0 5 4 8 8 5 5
-3 9 1 9 9 0 8 -1 14 -1 14 -1 -1 -17 -7 -36 -15z"/>
<path d="M14490 5101 c0 -11 26 -22 34 -14 12 12 5 23 -14 23 -11 0 -20 -4
-20 -9z"/>
<path d="M14282 5081 c-11 -7 -11 -9 1 -14 16 -6 27 0 27 15 0 10 -11 10 -28
-1z"/>
<path d="M14620 5065 c0 -10 10 -15 26 -15 22 0 25 2 14 15 -7 8 -19 15 -26
15 -8 0 -14 -7 -14 -15z"/>
<path d="M13030 4740 c14 -4 21 -8 16 -9 -24 -3 23 -33 73 -47 31 -8 65 -19
76 -24 89 -37 106 -40 218 -34 61 4 117 6 122 6 6 0 69 -3 140 -5 194 -7 447
-26 560 -42 172 -25 196 -27 208 -17 7 5 46 12 87 15 41 3 107 11 145 17 39 6
108 14 155 19 47 5 119 17 160 27 41 10 79 17 84 16 4 -2 13 1 20 6 6 6 25 13
43 16 17 4 37 14 44 22 15 18 3 18 -121 0 -181 -27 -511 -54 -705 -58 -165 -4
-817 30 -905 47 -14 3 -45 7 -70 10 -25 2 -107 13 -183 25 -76 11 -150 20
-165 19 l-27 -1 25 -8z"/>
<path d="M15248 4733 c6 -2 18 -2 25 0 6 3 1 5 -13 5 -14 0 -19 -2 -12 -5z"/>
<path d="M13291 3596 c2 -2 24 -6 48 -9 29 -4 40 -2 30 4 -13 8 -88 14 -78 5z"/>
<path d="M13775 3350 c-3 -5 -18 -10 -33 -10 -18 0 -23 -3 -15 -11 14 -14 83
-1 83 17 0 16 -26 19 -35 4z"/>
<path d="M14158 3355 c-3 -3 -27 -7 -54 -9 -39 -2 -48 -6 -46 -19 2 -14 -6
-17 -44 -17 -26 0 -44 -3 -41 -7 4 -3 35 -5 70 -4 49 1 65 6 76 21 7 11 22 20
32 20 11 0 19 5 19 10 0 11 -4 13 -12 5z"/>
<path d="M12961 3169 c-19 -8 -21 -12 -11 -24 7 -8 21 -15 32 -15 10 0 16 -4
13 -10 -3 -5 1 -10 10 -10 9 0 13 -4 10 -10 -3 -5 -3 -10 2 -11 36 -3 59 -12
74 -30 10 -11 30 -22 45 -24 14 -1 30 -9 35 -16 8 -12 12 -11 23 4 14 18 15
18 26 -2 6 -12 20 -21 30 -21 11 0 20 -5 20 -11 0 -5 4 -8 9 -5 4 3 17 -4 27
-15 10 -11 23 -18 30 -15 8 3 11 0 8 -8 -3 -7 2 -13 10 -13 8 0 12 7 9 16 -3
9 6 4 21 -11 31 -32 69 -39 59 -10 -6 16 -5 16 14 0 13 -12 36 -18 66 -18 26
0 47 -3 47 -8 0 -4 18 -7 41 -7 22 0 43 -5 47 -10 9 -12 46 -16 90 -9 28 4 31
8 22 20 -16 18 1 18 26 -1 22 -17 70 -20 79 -5 9 14 25 12 22 -2 -2 -13 8 -14
123 -22 80 -6 77 -5 60 -16 -11 -7 -7 -10 17 -10 41 0 63 -9 63 -25 0 -10 8
-11 27 -6 28 7 80 -11 95 -33 6 -8 8 -8 8 0 0 6 10 10 23 9 12 -2 21 -7 20
-12 -1 -5 51 -9 126 -9 110 1 128 3 123 16 -2 8 3 5 13 -8 9 -13 22 -21 29
-19 6 2 37 1 69 -3 32 -3 61 -2 64 3 3 5 9 3 14 -4 6 -11 18 -9 59 8 27 12 48
18 45 13 -3 -4 7 -11 21 -14 18 -5 30 -2 38 10 11 14 16 15 36 4 18 -10 27 -9
47 1 13 7 22 18 19 25 -3 8 3 10 17 6 12 -3 16 -7 9 -10 -8 -2 -3 -12 15 -28
31 -27 48 -31 40 -10 -8 20 4 28 21 14 11 -10 17 -9 27 5 8 11 26 17 49 17 29
0 36 4 36 19 0 11 9 23 20 26 11 4 18 11 15 16 -4 5 -1 9 4 9 6 0 11 -9 11
-20 0 -11 -7 -20 -16 -20 -8 0 -13 -4 -10 -9 3 -5 15 -7 26 -4 11 3 17 9 14
14 -8 14 21 39 54 45 21 4 31 2 35 -10 4 -9 12 -16 18 -16 8 0 7 5 -2 17 -13
15 -10 15 34 9 50 -8 58 -2 30 21 -17 14 -17 14 0 9 9 -3 17 -1 17 4 0 6 7 10
15 10 9 0 29 14 45 30 31 31 38 50 20 50 -5 0 -10 7 -10 16 0 8 -4 12 -10 9
-5 -3 -18 -1 -27 4 -16 10 -17 10 -1 11 9 0 19 4 23 9 6 11 -40 8 -188 -13
-167 -24 -772 -46 -965 -36 -50 3 -92 1 -92 -4 0 -5 -6 -4 -12 1 -7 5 -44 10
-83 12 -340 12 -754 68 -1081 147 -78 19 -143 34 -145 33 -2 0 -15 -5 -28 -10z
m1399 -348 c0 -5 -10 -11 -22 -14 -22 -6 -22 -6 -4 8 23 17 26 18 26 6z m830
-15 c0 -2 -10 -2 -22 2 -17 4 -20 2 -15 -11 4 -10 2 -17 -3 -17 -11 0 -14 33
-4 43 6 6 44 -9 44 -17z m25 14 c3 -5 1 -10 -4 -10 -6 0 -11 5 -11 10 0 6 2
10 4 10 3 0 8 -4 11 -10z m-295 -50 c0 -5 -4 -10 -10 -10 -5 0 -10 5 -10 10 0
6 5 10 10 10 6 0 10 -4 10 -10z"/>
<path d="M13535 2890 c-3 -5 -1 -10 4 -10 6 0 11 5 11 10 0 6 -2 10 -4 10 -3
0 -8 -4 -11 -10z"/>
<path d="M14565 2720 c-3 -5 1 -10 10 -10 9 0 13 5 10 10 -3 6 -8 10 -10 10
-2 0 -7 -4 -10 -10z"/>
<path d="M12656 2532 c11 -11 39 -21 63 -25 53 -7 43 5 -23 27 -62 20 -64 20
-40 -2z"/>
<path d="M12787 2486 c-4 -10 0 -12 14 -9 10 3 16 9 13 14 -8 13 -21 11 -27
-5z"/>
<path d="M12831 2476 c-18 -21 -10 -37 11 -22 10 7 13 17 9 25 -6 9 -11 8 -20
-3z"/>
<path d="M12888 2463 c6 -2 10 -9 6 -14 -5 -9 -4 -10 33 -14 12 -1 28 -5 37
-8 9 -4 13 -1 10 7 -5 13 -61 37 -85 35 -10 0 -10 -2 -1 -6z"/>
<path d="M12997 2419 c4 -15 11 -19 28 -15 15 4 31 -2 49 -18 15 -15 28 -20
32 -15 3 6 13 8 21 5 18 -7 93 4 93 14 0 11 -94 20 -104 10 -5 -5 -23 2 -41
16 -41 31 -86 33 -78 3z"/>
<path d="M13505 2420 c3 -5 8 -10 11 -10 2 0 4 5 4 10 0 6 -5 10 -11 10 -5 0
-7 -4 -4 -10z"/>
<path d="M14152 2408 c-18 -18 -14 -38 7 -38 25 0 37 18 17 26 -9 3 -13 10
-10 15 8 13 0 11 -14 -3z"/>
<path d="M14540 2390 c0 -5 5 -10 10 -10 6 0 10 5 10 10 0 6 -4 10 -10 10 -5
0 -10 -4 -10 -10z"/>
<path d="M13253 2383 c-13 -2 -23 -9 -23 -14 0 -9 41 -13 89 -9 13 1 28 -4 32
-12 7 -10 9 -10 9 0 0 22 20 13 30 -14 8 -21 13 -24 24 -15 11 10 16 8 24 -5
5 -9 20 -16 34 -16 26 0 34 -25 13 -40 -15 -11 -1 -18 23 -11 12 3 22 11 22
18 0 7 7 15 15 19 9 3 15 0 15 -9 0 -8 5 -15 11 -15 7 0 18 -8 25 -17 11 -15
9 -20 -8 -29 -14 -7 -33 -8 -52 -3 -17 4 -53 10 -81 13 -27 3 -70 8 -95 12
-33 4 -41 3 -30 -5 8 -6 26 -11 40 -11 14 0 36 -9 50 -20 15 -11 41 -20 63
-20 24 0 40 -5 43 -15 7 -16 28 -15 63 4 22 12 24 12 18 -9 -4 -16 -2 -20 10
-16 8 3 26 6 39 6 17 0 23 4 19 13 -4 6 -1 5 7 -3 8 -10 27 -15 50 -14 22 1
42 -4 49 -12 15 -19 46 -18 57 1 8 16 42 11 42 -5 0 -4 12 -11 26 -14 24 -6
25 -8 10 -19 -15 -11 -11 -14 29 -25 39 -10 48 -10 62 3 18 18 104 11 140 -11
25 -16 46 -19 23 -4 -10 7 5 9 52 5 36 -2 70 -5 75 -6 18 -4 75 15 79 26 7 17
75 17 93 1 30 -26 151 -20 151 7 0 6 3 7 7 4 3 -4 12 -2 20 4 9 8 13 8 13 0 0
-7 7 -8 23 -1 12 5 43 12 70 15 26 3 47 10 47 15 0 12 33 5 38 -8 3 -9 9 -9
24 -1 11 6 26 8 34 5 8 -3 14 -1 14 5 0 6 3 8 8 6 7 -4 150 16 200 28 42 10
22 22 -25 15 -27 -4 -63 -6 -80 -4 -18 2 -33 1 -33 -3 0 -5 -35 -9 -77 -9 -43
-1 -118 -3 -166 -4 -48 -1 -91 0 -94 3 -3 4 -5 18 -5 32 0 14 -3 25 -7 25 -4
0 -7 9 -8 21 -2 18 2 20 30 14 l32 -6 -24 21 c-28 24 -49 25 -79 5 -16 -12
-30 -14 -54 -7 -46 13 -61 5 -37 -19 23 -23 39 -25 39 -3 0 13 3 14 14 4 20
-16 8 -43 -16 -37 -15 4 -18 1 -16 -16 2 -13 9 -21 18 -19 60 14 80 14 80 -1
0 -14 -22 -16 -172 -14 -144 2 -172 4 -170 16 3 12 1 12 -13 1 -17 -14 -187
-17 -335 -7 -50 4 -79 2 -89 -6 -11 -9 -15 -9 -18 1 -3 6 -14 12 -25 12 -16 0
-18 3 -10 13 8 10 6 13 -9 13 -10 0 -19 -3 -19 -6 0 -9 -42 -8 -83 2 -30 7
-36 12 -28 22 8 10 7 17 -4 26 -25 21 -17 30 24 30 25 0 41 -5 45 -15 3 -8 12
-15 19 -15 8 0 20 -7 27 -15 17 -20 33 -8 20 15 -8 15 -7 18 3 14 7 -2 26 0
41 6 21 8 31 7 42 -4 19 -19 18 -23 -7 -29 -25 -7 -16 -27 11 -27 10 0 22 9
25 20 3 11 13 20 21 20 8 0 14 5 14 10 0 6 13 10 29 10 16 0 32 6 35 13 3 8 8
7 16 -6 11 -18 13 -18 31 2 10 11 19 23 19 26 0 9 -50 6 -70 -5 -11 -6 -29 -6
-47 -1 -35 10 -147 32 -188 36 -16 2 -45 -2 -62 -8 -28 -9 -35 -8 -48 9 -14
17 -16 17 -27 3 -17 -21 -52 -39 -78 -39 -17 0 -28 13 -45 57 0 1 -41 7 -90
13 -50 6 -97 12 -105 14 -8 2 -25 1 -37 -1z m737 -297 c0 -3 -4 -8 -10 -11 -5
-3 -10 -1 -10 4 0 6 5 11 10 11 6 0 10 -2 10 -4z"/>
<path d="M13785 2380 c3 -5 16 -10 28 -9 21 0 21 1 2 9 -28 12 -37 12 -30 0z"/>
<path d="M13727 2374 c-3 -4 1 -13 9 -21 18 -18 27 -13 18 11 -6 17 -16 20
-27 10z"/>
<path d="M13890 2352 c0 -5 7 -13 16 -16 10 -4 14 -1 12 6 -5 15 -28 23 -28
10z"/>
<path d="M13650 2340 c0 -5 5 -10 11 -10 5 0 7 5 4 10 -3 6 -8 10 -11 10 -2 0
-4 -4 -4 -10z"/>
<path d="M13810 2340 c0 -5 5 -10 10 -10 6 0 10 5 10 10 0 6 -4 10 -10 10 -5
0 -10 -4 -10 -10z"/>
<path d="M13960 2340 c0 -5 5 -10 11 -10 5 0 7 5 4 10 -3 6 -8 10 -11 10 -2 0
-4 -4 -4 -10z"/>
<path d="M14610 2346 c0 -2 7 -7 16 -10 8 -3 12 -2 9 4 -6 10 -25 14 -25 6z"/>
<path d="M15031 2334 c0 -11 3 -14 6 -6 3 7 2 16 -1 19 -3 4 -6 -2 -5 -13z"/>
<path d="M14358 2333 c7 -3 16 -2 19 1 4 3 -2 6 -13 5 -11 0 -14 -3 -6 -6z"/>
<path d="M14273 2323 c-18 -2 -33 -9 -33 -14 0 -6 -5 -7 -11 -3 -24 15 -69 14
-69 -1 0 -19 -14 -19 -34 0 -17 17 -30 20 -21 5 3 -5 -3 -10 -14 -10 -12 0
-21 -4 -21 -10 0 -5 7 -10 15 -10 11 0 12 -5 5 -26 -19 -50 -3 -64 44 -37 12
7 30 7 48 2 16 -4 36 -5 45 -2 14 5 13 8 -3 20 -18 14 -18 15 9 39 29 24 67
32 67 14 0 -6 -6 -10 -12 -9 -25 3 -38 -1 -38 -12 0 -5 5 -7 10 -4 6 3 10 2
10 -3 0 -6 11 -9 25 -8 17 1 23 5 20 15 -4 11 -3 11 9 2 13 -11 13 -15 -2 -31
-12 -15 -18 -17 -25 -7 -5 8 -7 5 -5 -8 4 -22 37 -23 50 -2 6 9 8 9 8 0 0 -6
9 -11 20 -10 11 1 20 7 20 14 0 7 5 13 10 13 17 0 11 20 -7 27 -10 3 -26 15
-36 27 -13 16 -16 17 -11 4 3 -10 2 -18 -4 -18 -12 0 -24 29 -16 41 3 5 -1 8
-8 7 -7 0 -28 -3 -45 -5z"/>
<path d="M14676 2311 c-19 -7 -16 -13 14 -23 11 -4 16 0 16 13 0 21 -2 21 -30
10z"/>
<path d="M14419 2297 c5 -5 19 -7 32 -5 20 3 19 5 -9 9 -20 3 -29 2 -23 -4z"/>
<path d="M15288 2303 c6 -2 18 -2 25 0 6 3 1 5 -13 5 -14 0 -19 -2 -12 -5z"/>
<path d="M15380 2300 c0 -5 5 -10 10 -10 6 0 10 5 10 10 0 6 -4 10 -10 10 -5
0 -10 -4 -10 -10z"/>
<path d="M14713 2278 c-15 -16 -20 -31 -16 -50 3 -16 9 -28 13 -28 5 0 14 -2
22 -5 7 -3 29 9 48 26 l35 31 18 -24 c20 -24 67 -33 67 -12 0 7 8 20 17 30 26
26 27 54 1 54 -12 0 -19 -3 -15 -6 3 -3 1 -19 -5 -35 -10 -30 -31 -38 -44 -17
-5 8 -2 9 9 5 26 -10 20 9 -9 32 -38 30 -113 29 -141 -1z"/>
<path d="M15075 2293 c-39 -9 -42 -26 -4 -19 28 5 38 3 42 -9 6 -14 37 -11 37
4 0 7 -47 33 -53 30 -1 -1 -11 -3 -22 -6z"/>
<path d="M14956 2274 c-9 -23 -2 -28 13 -10 7 8 8 17 3 20 -6 3 -13 -1 -16
-10z"/>
<path d="M15220 2280 c0 -5 5 -10 11 -10 5 0 7 5 4 10 -3 6 -8 10 -11 10 -2 0
-4 -4 -4 -10z"/>
<path d="M15175 2260 c3 -5 10 -10 16 -10 5 0 9 5 9 10 0 6 -7 10 -16 10 -8 0
-12 -4 -9 -10z"/>
<path d="M14025 2249 c-4 -6 -5 -12 -2 -15 7 -7 37 7 37 17 0 13 -27 11 -35
-2z"/>
<path d="M13965 2240 c-3 -5 1 -10 10 -10 9 0 13 5 10 10 -3 6 -8 10 -10 10
-2 0 -7 -4 -10 -10z"/>
<path d="M14450 2240 c0 -5 5 -10 11 -10 5 0 7 5 4 10 -3 6 -8 10 -11 10 -2 0
-4 -4 -4 -10z"/>
<path d="M14670 2220 c0 -5 5 -10 10 -10 6 0 10 5 10 10 0 6 -4 10 -10 10 -5
0 -10 -4 -10 -10z"/>
<path d="M14915 2220 c-3 -5 -1 -10 4 -10 6 0 11 5 11 10 0 6 -2 10 -4 10 -3
0 -8 -4 -11 -10z"/>
<path d="M14800 2210 c0 -5 5 -10 10 -10 6 0 10 5 10 10 0 6 -4 10 -10 10 -5
0 -10 -4 -10 -10z"/>
<path d="M14450 2190 c0 -5 5 -10 10 -10 6 0 10 5 10 10 0 6 -4 10 -10 10 -5
0 -10 -4 -10 -10z"/>
<path d="M15155 2180 c-4 -6 5 -10 19 -10 14 0 26 5 26 10 0 6 -9 10 -19 10
-11 0 -23 -4 -26 -10z"/>
<path d="M13831 2101 c-7 -5 -10 -14 -7 -20 11 -17 26 -13 26 6 0 9 3 13 8 9
4 -4 7 -13 7 -18 0 -6 6 -13 13 -15 15 -6 16 19 0 35 -14 14 -28 15 -47 3z"/>
<path d="M12893 2033 c20 -16 37 -32 37 -38 2 -33 137 -99 295 -144 143 -41
532 -86 840 -97 99 -3 227 -9 285 -13 175 -10 450 13 655 56 39 8 95 19 125
24 30 6 64 14 75 19 11 5 30 12 43 15 12 4 22 11 22 16 0 12 -17 12 -25 -1 -4
-6 -10 -8 -14 -5 -5 2 -32 -2 -61 -11 -37 -11 -56 -12 -63 -5 -6 6 -16 11 -21
11 -6 0 -4 -5 4 -10 13 -8 12 -10 -2 -10 -10 0 -18 5 -18 10 0 15 -27 12 -45
-6 -8 -9 -23 -13 -32 -10 -8 4 -22 1 -30 -5 -10 -9 -20 -9 -39 -1 -21 10 -33
8 -75 -14 -28 -14 -49 -22 -46 -17 3 4 -25 8 -61 9 -37 0 -114 4 -172 8 -58 4
-121 8 -140 8 -57 -1 -82 7 -76 23 6 16 7 16 -119 18 -53 1 -85 6 -94 15 -11
11 -15 11 -22 0 -7 -10 -11 -10 -17 0 -5 7 -19 11 -33 10 -20 -3 -23 1 -21 20
3 21 1 22 -17 12 -12 -6 -21 -15 -21 -19 0 -5 -25 -8 -55 -7 -39 1 -55 -2 -55
-11 0 -7 -4 -13 -10 -13 -5 0 -9 5 -7 12 2 12 -45 28 -100 33 -18 2 -33 0 -33
-4 0 -12 -125 -6 -135 7 -8 10 -17 8 -40 -12 -34 -30 -41 -31 -48 -12 -7 17
-41 26 -58 15 -11 -7 -10 -9 4 -9 9 0 17 -5 17 -10 0 -6 -10 -9 -22 -6 -36 6
-71 -11 -65 -33 4 -15 0 -17 -26 -12 -29 6 -51 31 -28 31 6 0 11 7 11 16 0 9
-6 14 -13 11 -7 -3 -21 1 -32 9 -10 8 -33 14 -51 14 -17 0 -48 7 -67 15 -43
18 -50 19 -41 4 19 -31 -227 71 -256 106 -7 8 -19 15 -28 15 -9 0 0 -12 21
-27z m318 -134 c28 -15 13 -31 -16 -17 -25 11 -34 28 -14 28 6 0 19 -5 30 -11z
m404 -9 c3 -5 2 -10 -4 -10 -5 0 -13 5 -16 10 -3 6 -2 10 4 10 5 0 13 -4 16
-10z"/>
<path d="M15575 2030 c-3 -5 -2 -10 4 -10 5 0 13 5 16 10 3 6 2 10 -4 10 -5 0
-13 -4 -16 -10z"/>
<path d="M14425 2010 c-3 -5 1 -10 9 -10 9 0 16 5 16 10 0 6 -4 10 -9 10 -6 0
-13 -4 -16 -10z"/>
<path d="M14410 1986 c0 -2 7 -7 16 -10 8 -3 12 -2 9 4 -6 10 -25 14 -25 6z"/>
<path d="M14322 1955 c-2 -26 11 -34 24 -14 3 6 0 17 -8 25 -12 12 -14 10 -16
-11z"/>
<path d="M13910 1929 c0 -5 5 -7 10 -4 6 3 10 8 10 11 0 2 -4 4 -10 4 -5 0
-10 -5 -10 -11z"/>
<path d="M14830 1925 c0 -19 9 -19 34 0 19 14 19 15 -7 15 -17 0 -27 -5 -27
-15z"/>
<path d="M15373 1912 c-53 -18 -77 -32 -52 -32 22 0 88 25 101 38 15 15 15 15
-49 -6z"/>
<path d="M13390 1896 c6 -8 18 -12 26 -9 19 7 7 23 -18 23 -17 0 -18 -3 -8
-14z"/>
<path d="M14345 1890 c-7 -11 22 -26 32 -16 4 3 -2 6 -13 6 -16 0 -17 2 -4 10
9 6 10 10 3 10 -6 0 -15 -5 -18 -10z"/>
<path d="M14404 1878 c0 -21 24 -23 49 -4 16 13 15 14 -15 18 -27 3 -34 0 -34
-14z"/>
<path d="M14775 1890 c3 -5 8 -10 11 -10 2 0 4 5 4 10 0 6 -5 10 -11 10 -5 0
-7 -4 -4 -10z"/>
<path d="M14480 1880 c0 -5 7 -10 16 -10 8 0 12 5 9 10 -3 6 -10 10 -16 10 -5
0 -9 -4 -9 -10z"/>
<path d="M12440 1864 c0 -8 5 -12 10 -9 6 3 10 10 10 16 0 5 -4 9 -10 9 -5 0
-10 -7 -10 -16z"/>
<path d="M12600 1800 c-12 -8 -10 -10 8 -10 13 0 20 4 17 10 -7 12 -6 12 -25
0z"/>
<path d="M12825 1771 c-9 -30 -2 -37 42 -39 31 -1 34 0 17 8 -12 5 -29 18 -37
30 l-15 22 -7 -21z"/>
<path d="M12775 1750 c3 -5 10 -10 16 -10 5 0 9 5 9 10 0 6 -7 10 -16 10 -8 0
-12 -4 -9 -10z"/>
<path d="M13043 1743 c-19 -4 -21 -7 -11 -27 11 -26 44 -25 65 3 20 28 4 35
-54 24z"/>
<path d="M15360 1740 c0 -5 5 -10 10 -10 6 0 10 5 10 10 0 6 -4 10 -10 10 -5
0 -10 -4 -10 -10z"/>
<path d="M15550 1739 c0 -5 5 -7 10 -4 6 3 10 8 10 11 0 2 -4 4 -10 4 -5 0
-10 -5 -10 -11z"/>
<path d="M15485 1730 c3 -5 16 -10 28 -10 18 0 19 2 7 10 -20 13 -43 13 -35 0z"/>
<path d="M13120 1727 c0 -4 7 -19 16 -32 9 -15 14 -35 10 -48 -5 -21 -3 -23
29 -19 23 3 32 8 28 16 -4 6 -6 19 -5 28 2 13 -1 16 -14 11 -12 -4 -24 3 -41
23 -12 16 -23 25 -23 21z"/>
<path d="M13367 1703 c-11 -10 -8 -25 3 -18 18 11 11 -8 -12 -32 -30 -32 -17
-38 36 -18 24 9 49 14 55 11 5 -4 13 -1 16 5 9 14 -24 37 -47 31 -10 -2 -20 2
-24 12 -7 17 -16 20 -27 9z"/>
<path d="M15445 1700 c3 -5 8 -10 11 -10 2 0 4 5 4 10 0 6 -5 10 -11 10 -5 0
-7 -4 -4 -10z"/>
<path d="M15403 1693 c-18 -6 -16 -23 1 -23 17 0 30 16 19 23 -5 2 -14 2 -20
0z"/>
<path d="M15055 1670 c-3 -5 -1 -10 4 -10 6 0 11 5 11 10 0 6 -2 10 -4 10 -3
0 -8 -4 -11 -10z"/>
<path d="M13486 1645 c-16 -12 -17 -17 -6 -30 19 -23 27 -18 26 15 -1 16 -1
30 -1 30 0 -1 -9 -7 -19 -15z"/>
<path d="M15010 1656 c0 -4 7 -18 16 -31 11 -17 12 -25 5 -25 -7 0 -9 -5 -5
-11 5 -8 9 -8 14 1 4 7 12 10 16 7 17 -10 32 18 20 36 -12 16 -66 35 -66 23z"/>
<path d="M13741 1639 c-2 -35 -26 -41 -70 -17 -28 15 -44 19 -49 12 -4 -6 -15
-10 -26 -8 -10 1 -25 0 -33 -3 -14 -5 -14 -8 -1 -17 8 -6 17 -19 21 -28 8 -21
27 -24 27 -4 0 15 51 29 75 20 8 -3 17 -13 20 -23 6 -19 76 -26 105 -11 11 6
24 4 37 -5 11 -8 40 -16 64 -19 l44 -5 -63 31 c-39 20 -61 36 -58 44 7 18 -53
47 -70 34 -8 -8 -14 -7 -17 2 -4 9 -6 8 -6 -3z"/>
<path d="M13846 1635 c4 -8 10 -15 15 -15 5 0 9 7 9 15 0 8 -7 15 -15 15 -9 0
-12 -6 -9 -15z"/>
<path d="M13934 1636 c-10 -8 -16 -18 -11 -22 4 -4 7 -2 7 5 0 7 9 9 28 5 24
-7 26 -6 13 9 -16 20 -13 20 -37 3z"/>
<path d="M14380 1637 c1 -21 37 -60 49 -53 22 14 12 44 -19 55 -22 7 -30 7
-30 -2z"/>
<path d="M14900 1631 c-25 -8 -52 -16 -60 -19 -8 -3 -19 -4 -25 -3 -5 2 -26 4
-45 5 -19 2 -43 6 -52 10 -28 13 -53 2 -56 -23 -5 -29 15 -52 24 -28 4 11 17
17 36 17 26 0 28 -3 22 -22 l-6 -21 26 20 c15 12 41 21 61 21 20 0 46 7 59 15
13 9 33 13 44 11 11 -3 23 -1 26 4 3 6 16 8 28 4 13 -3 19 -1 15 5 -11 18 -50
19 -97 4z"/>
<path d="M15165 1639 c-12 -19 5 -23 22 -6 16 16 16 17 1 17 -9 0 -20 -5 -23
-11z"/>
<path d="M15114 1625 c21 -16 32 -13 21 4 -3 6 -14 11 -23 11 -15 -1 -15 -2 2
-15z"/>
<path d="M14300 1616 c0 -8 -5 -16 -10 -18 -7 -2 -5 -11 4 -23 14 -18 15 -18
16 -2 0 9 7 17 16 17 8 0 12 -5 9 -10 -7 -11 35 -31 48 -23 12 7 -2 23 -29 33
-13 5 -24 16 -24 25 0 8 -7 15 -15 15 -8 0 -15 -6 -15 -14z"/>
<path d="M14536 1615 c4 -8 7 -15 9 -15 2 0 5 7 9 15 3 9 0 15 -9 15 -9 0 -12
-6 -9 -15z"/>
<path d="M14122 1602 c-24 -2 -32 -7 -28 -18 4 -10 -2 -14 -18 -14 -13 0 -27
8 -31 18 -6 16 -7 16 -20 -2 -13 -17 -15 -17 -21 -3 -3 10 -11 17 -17 17 -7 0
-7 -4 1 -12 17 -17 15 -28 -5 -29 -10 -1 11 -6 47 -13 36 -6 67 -9 70 -6 3 3
16 6 29 8 31 3 33 5 29 34 -3 20 -8 23 -36 20z"/>
<path d="M14610 1581 c0 -5 7 -12 16 -15 22 -9 24 -8 18 9 -7 16 -34 21 -34 6z"/>
<path d="M14430 1565 c0 -7 -7 -18 -16 -23 -14 -8 -14 -10 1 -25 22 -23 67
-23 58 -1 -5 14 -2 16 19 11 23 -6 25 -4 21 13 -3 13 -14 20 -29 20 -13 0 -24
5 -24 10 0 6 -7 10 -15 10 -8 0 -15 -7 -15 -15z"/>
<path d="M14538 1561 c-20 -19 -15 -31 13 -31 22 0 31 13 23 34 -8 20 -14 19
-36 -3z"/>
<path d="M13564 1551 c3 -5 15 -11 26 -14 17 -4 19 -3 9 9 -12 15 -44 20 -35
5z"/>
<path d="M14695 1530 c-3 -5 1 -10 10 -10 9 0 13 5 10 10 -3 6 -8 10 -10 10
-2 0 -7 -4 -10 -10z"/>
<path d="M14320 1505 c0 -8 4 -15 9 -15 5 0 11 7 15 15 3 9 0 15 -9 15 -8 0
-15 -7 -15 -15z"/>
<path d="M13405 1490 c-3 -5 -1 -10 4 -10 6 0 11 5 11 10 0 6 -2 10 -4 10 -3
0 -8 -4 -11 -10z"/>
<path d="M13910 1452 c0 -10 11 -28 23 -41 22 -20 25 -20 38 -5 11 14 10 18
-6 31 -43 31 -55 35 -55 15z"/>
<path d="M13435 1440 c-8 -12 20 -24 35 -15 6 3 8 11 5 16 -8 12 -32 12 -40
-1z"/>
<path d="M13541 1434 c0 -11 3 -14 6 -6 3 7 2 16 -1 19 -3 4 -6 -2 -5 -13z"/>
<path d="M13400 1421 c0 -6 4 -13 10 -16 6 -3 7 1 4 9 -7 18 -14 21 -14 7z"/>
<path d="M13995 1421 c-3 -5 -1 -12 5 -16 5 -3 10 1 10 9 0 18 -6 21 -15 7z"/>
<path d="M15225 1400 c-3 -5 -1 -10 4 -10 6 0 11 5 11 10 0 6 -2 10 -4 10 -3
0 -8 -4 -11 -10z"/>
<path d="M13487 1393 c-12 -11 -8 -51 6 -56 6 -3 2 -6 -11 -6 -13 -1 -21 3
-18 8 4 5 -2 7 -12 4 -10 -2 -24 3 -32 12 -12 14 -14 14 -31 -1 -11 -10 -22
-14 -25 -11 -8 8 -27 -12 -39 -38 -7 -17 -9 -18 -12 -3 -6 24 -32 30 -56 13
-18 -13 -19 -15 -4 -15 9 0 17 -5 17 -11 0 -7 -7 -8 -17 -4 -10 3 -38 11 -63
16 -25 5 -83 18 -130 29 -47 12 -102 23 -122 27 -37 5 -38 5 -38 -24 0 -17 8
-37 18 -45 24 -20 88 -46 147 -59 28 -6 59 -13 70 -16 362 -90 1271 -112 1806
-43 239 31 424 87 379 115 -6 4 -8 11 -5 16 4 5 1 9 -6 9 -8 0 -8 4 1 15 7 8
20 15 29 15 9 0 23 5 31 11 12 8 10 9 -8 4 -15 -4 -30 -1 -40 9 -18 16 -36 11
-44 -13 -2 -8 -13 -16 -24 -17 -10 -1 -38 -8 -61 -14 -36 -11 -45 -10 -58 4
-20 20 -31 20 -42 3 -11 -18 -106 -37 -128 -25 -11 7 -28 4 -51 -7 -20 -9 -42
-14 -49 -11 -8 3 -17 1 -20 -4 -7 -11 -55 -13 -79 -4 -9 3 -16 12 -16 20 0 8
-7 14 -16 14 -10 0 -14 -6 -11 -15 4 -8 1 -17 -5 -21 -7 -4 -8 -3 -4 4 9 16 4
15 -30 -3 -16 -8 -38 -15 -49 -15 -33 0 -65 12 -59 21 7 11 -2 11 -24 0 -53
-27 -72 -33 -87 -27 -15 5 -15 7 -1 22 22 22 20 31 -2 11 -10 -10 -22 -17 -26
-17 -4 0 -14 -7 -23 -15 -8 -8 -20 -12 -26 -8 -7 4 -30 9 -51 10 -22 2 -43 9
-48 15 -7 12 -9 11 -12 -12 0 -5 -4 -10 -8 -10 -44 0 -44 0 -25 11 9 5 17 15
17 21 0 9 -3 9 -12 0 -7 -7 -21 -12 -32 -11 -19 0 -19 1 2 10 13 5 20 13 17
19 -4 6 -10 8 -15 5 -5 -3 -25 -6 -45 -7 -40 -1 -40 -1 -19 -33 9 -14 12 -25
6 -25 -5 0 -13 7 -16 16 -4 9 -13 14 -21 10 -10 -4 -15 1 -15 14 0 11 -5 20
-10 20 -17 0 -24 -31 -9 -41 11 -6 8 -9 -8 -9 -13 0 -23 6 -23 14 0 21 -21 31
-30 16 -6 -10 -15 -10 -38 -2 -17 6 -33 7 -37 4 -3 -4 -10 0 -14 7 -6 10 -14
11 -27 3 -14 -8 -21 -5 -35 12 -14 17 -20 19 -30 9 -10 -10 -10 -13 -1 -13 7
0 12 -4 12 -10 0 -19 -29 -10 -41 12 -8 14 -14 18 -17 10 -5 -15 -27 -15 -51
0 -17 10 -23 8 -39 -12 -18 -23 -19 -23 -52 -6 -25 12 -46 15 -77 10 -39 -6
-43 -4 -43 15 0 13 9 25 23 31 21 8 21 9 -5 9 -39 1 -57 11 -51 27 5 14 -8 19
-20 7z m-107 -67 c0 -11 -19 -15 -25 -6 -3 5 1 10 9 10 9 0 16 -2 16 -4z m106
-24 c-7 -7 -46 9 -46 18 0 5 11 4 25 -2 14 -6 23 -13 21 -16z m144 -12 c0 -5
-2 -10 -4 -10 -3 0 -8 5 -11 10 -3 6 -1 10 4 10 6 0 11 -4 11 -10z m145 -10
c13 -6 15 -9 5 -9 -8 0 -22 4 -30 9 -18 12 -2 12 25 0z m155 -10 c0 -5 -2 -10
-4 -10 -3 0 -8 5 -11 10 -3 6 -1 10 4 10 6 0 11 -4 11 -10z"/>
<path d="M13315 1380 c3 -5 10 -10 16 -10 5 0 9 5 9 10 0 6 -7 10 -16 10 -8 0
-12 -4 -9 -10z"/>
<path d="M13876 1383 c-12 -12 -6 -33 9 -33 8 0 15 6 15 14 0 17 -14 28 -24
19z"/>
<path d="M14007 1384 c-12 -12 6 -34 29 -34 29 0 31 15 5 30 -23 12 -26 12
-34 4z"/>
<path d="M15395 1380 c-7 -12 2 -12 30 0 19 8 19 9 -2 9 -12 1 -25 -3 -28 -9z"/>
<path d="M13630 1365 c0 -9 -6 -12 -15 -9 -8 4 -15 1 -15 -5 0 -6 14 -11 30
-11 32 0 33 1 24 24 -8 20 -24 21 -24 1z"/>
<path d="M13746 1364 c-8 -21 -8 -39 1 -30 8 7 15 46 9 46 -2 0 -7 -7 -10 -16z"/>
<path d="M14120 1365 c0 -8 4 -15 10 -15 5 0 7 7 4 15 -4 8 -8 15 -10 15 -2 0
-4 -7 -4 -15z"/>
<path d="M13820 1360 c0 -5 5 -10 11 -10 5 0 7 5 4 10 -3 6 -8 10 -11 10 -2 0
-4 -4 -4 -10z"/>
<path d="M13305 1350 c3 -5 10 -10 16 -10 5 0 9 5 9 10 0 6 -7 10 -16 10 -8 0
-12 -4 -9 -10z"/>
<path d="M14210 1340 c0 -5 7 -10 16 -10 8 0 12 5 9 10 -3 6 -10 10 -16 10 -5
0 -9 -4 -9 -10z"/>
<path d="M14442 1331 c13 -22 28 -28 28 -11 0 5 -9 14 -20 20 -19 10 -20 10
-8 -9z"/>
<path d="M14810 1340 c0 -6 13 -9 29 -8 16 1 27 6 25 10 -7 12 -54 10 -54 -2z"/>
<path d="M13915 1319 c-20 -9 -20 -9 0 -7 11 2 25 -1 32 -5 6 -4 14 -3 17 2 8
13 -26 19 -49 10z"/>
<path d="M14145 1320 c3 -5 10 -10 16 -10 5 0 9 5 9 10 0 6 -7 10 -16 10 -8 0
-12 -4 -9 -10z"/>
<path d="M13650 1309 c0 -5 11 -8 25 -7 14 1 25 5 25 9 0 4 -11 7 -25 7 -14 0
-25 -4 -25 -9z"/>
<path d="M14031 1317 c2 -1 12 -9 22 -16 14 -12 17 -11 17 3 0 10 -8 16 -22
16 -12 0 -19 -1 -17 -3z"/>
<path d="M14340 1300 c0 -5 7 -10 16 -10 8 0 12 5 9 10 -3 6 -10 10 -16 10 -5
0 -9 -4 -9 -10z"/>
<path d="M14798 1283 c7 -3 16 -2 19 1 4 3 -2 6 -13 5 -11 0 -14 -3 -6 -6z"/>
</g>
</svg>
