<?xml version="1.0" standalone="no"?>
<!DOCTYPE svg PUBLIC "-//W3C//DTD SVG 20010904//EN"
 "http://www.w3.org/TR/2001/REC-SVG-20010904/DTD/svg10.dtd">
<svg version="1.0" xmlns="http://www.w3.org/2000/svg"
 width="450.000000pt" height="450.000000pt" viewBox="0 0 450.000000 450.000000"
 preserveAspectRatio="xMidYMid meet">

<g transform="translate(0.000000,450.000000) scale(0.100000,-0.100000)"
fill="#000000" stroke="none">
<path d="M208 4483 c-14 -13 -20 -14 -32 -4 -22 18 -38 4 -32 -30 2 -16 0 -27
-5 -23 -5 3 -9 17 -9 30 0 16 -5 24 -12 21 -8 -2 -12 -18 -10 -38 2 -33 2 -33
-10 -10 -15 29 -38 39 -38 17 0 -9 -4 -16 -10 -16 -5 0 -10 -21 -11 -47 -1
-46 -1 -47 -9 -15 -16 68 -30 60 -30 -16 0 -40 4 -72 8 -72 5 0 29 7 55 16 26
9 52 14 59 12 6 -2 -19 -12 -55 -22 l-67 -18 0 -50 0 -51 54 7 c30 3 88 16
128 29 l73 23 -2 73 c-1 40 -9 97 -18 127 -9 30 -13 59 -10 64 9 15 1 12 -17
-7z m22 -127 c0 -8 -12 -19 -27 -24 -16 -5 -36 -13 -45 -17 -11 -4 -18 -3 -18
5 0 6 5 8 10 5 6 -3 10 -1 10 6 0 7 3 10 6 6 4 -3 13 1 21 9 8 8 19 12 24 9 5
-4 9 -1 9 4 0 6 2 11 5 11 3 0 5 -6 5 -14z"/>
<path d="M800 4477 c0 -42 31 -142 47 -155 13 -9 17 -29 18 -77 l0 -64 53 -7
c99 -12 311 1 384 25 37 12 70 26 74 32 11 19 5 113 -12 174 -9 33 -16 68 -16
78 1 15 -1 16 -15 2 -11 -11 -19 -13 -28 -5 -7 5 -27 7 -45 4 -30 -7 -32 -9
-27 -40 7 -40 0 -44 -13 -9 -5 14 -17 25 -26 25 -10 0 -14 -5 -10 -15 3 -8 1
-15 -4 -15 -6 0 -10 -20 -10 -45 0 -25 -4 -45 -10 -45 -5 0 -10 13 -10 28 0
34 -23 68 -38 58 -7 -4 -12 -21 -12 -38 l0 -31 -23 21 c-30 28 -37 28 -37 -3
0 -14 -4 -25 -10 -25 -5 0 -10 11 -10 24 0 32 -17 42 -39 22 -22 -20 -31 -20
-31 -1 0 20 -26 19 -34 -1 -3 -9 -6 -28 -7 -42 -1 -29 -3 -25 -14 23 l-8 30
-18 -40 -18 -40 -15 36 c-8 20 -16 59 -18 88 -3 50 -18 74 -18 28z m467 -44
c-3 -10 -5 -4 -5 12 0 17 2 24 5 18 2 -7 2 -21 0 -30z m93 -76 c0 -13 -55 -39
-64 -29 -9 8 33 34 44 27 6 -3 10 -1 10 4 0 6 2 11 5 11 3 0 5 -6 5 -13z m-80
-37 c0 -11 -87 -38 -145 -45 -30 -4 -26 -1 18 10 32 8 70 21 85 29 32 18 42
19 42 6z m-232 -57 c-27 -2 -69 -2 -95 0 -27 2 -5 3 47 3 52 0 74 -1 48 -3z"/>
<path d="M1931 4467 c-2 -54 18 -123 40 -143 15 -13 19 -31 19 -80 l0 -63 55
-6 c108 -14 303 0 385 27 l75 24 -2 73 c-1 40 -9 97 -18 127 -9 30 -13 60 -9
67 4 7 -2 4 -14 -7 -17 -15 -24 -16 -36 -7 -23 19 -38 3 -31 -30 4 -18 3 -29
-4 -29 -6 0 -11 14 -11 31 0 20 -4 29 -12 26 -8 -2 -12 -18 -10 -38 2 -33 2
-33 -10 -10 -15 29 -38 39 -38 17 0 -9 -4 -16 -10 -16 -5 0 -10 -21 -11 -47
-1 -45 -2 -46 -9 -16 -8 34 -27 63 -40 63 -4 0 -11 -17 -15 -37 l-7 -37 -18
24 c-20 27 -34 21 -43 -15 -3 -16 -6 -13 -12 13 -8 36 -19 40 -43 15 -16 -16
-17 -16 -20 0 -4 18 -27 23 -36 8 -4 -5 -7 -21 -8 -35 -3 -37 -18 -32 -18 5 0
27 -2 29 -15 15 -8 -8 -15 -21 -15 -30 0 -27 -17 -26 -29 2 -6 15 -15 54 -20
87 -7 48 -9 53 -10 22z m550 -120 c-6 -6 -19 -11 -30 -12 -11 -1 -25 -6 -33
-12 -19 -16 -101 -42 -151 -48 -31 -4 -23 0 33 18 42 12 94 32 117 44 22 12
44 19 47 16 3 -4 6 -1 6 6 0 7 5 9 11 5 7 -4 8 -9 0 -17z m-308 -84 c-23 -2
-64 -2 -90 0 -26 2 -7 3 42 3 50 0 71 -1 48 -3z"/>
<path d="M3054 4446 c6 -55 29 -122 44 -128 5 -1 12 -15 15 -30 5 -20 3 -28
-10 -31 -17 -4 -16 -5 0 -6 15 -1 18 -8 15 -33 -3 -29 0 -33 32 -41 19 -5 103
-7 185 -5 124 4 162 9 220 29 l70 24 3 58 c2 32 -4 85 -14 120 -9 34 -16 70
-16 80 1 16 -1 16 -15 1 -11 -11 -19 -12 -26 -5 -22 22 -37 11 -38 -26 -1 -36
-2 -36 -8 -9 -3 16 -12 31 -20 34 -11 4 -13 -4 -9 -39 l6 -44 -14 33 c-14 31
-52 48 -40 17 3 -8 1 -15 -4 -15 -6 0 -10 -18 -10 -40 0 -22 -5 -40 -11 -40
-6 0 -9 6 -6 13 6 18 -22 69 -36 64 -7 -2 -14 -19 -17 -38 -6 -34 -6 -34 -20
-11 -20 29 -40 28 -40 -3 0 -14 -4 -25 -10 -25 -5 0 -10 11 -10 24 0 33 -16
41 -37 21 -15 -16 -18 -16 -28 -1 -23 31 -44 13 -46 -37 -1 -15 -4 -11 -11 13
l-11 35 -16 -37 c-9 -21 -19 -38 -22 -38 -10 0 -31 83 -32 129 -1 22 -6 41
-11 41 -5 0 -6 -24 -2 -54z m556 -86 c0 -8 -51 -40 -65 -40 -14 0 -2 17 23 32
31 20 42 22 42 8z m-80 -40 c0 -5 -3 -9 -7 -8 -5 1 -17 -3 -28 -9 -38 -21
-174 -43 -257 -41 l-83 1 110 7 c103 6 201 27 235 50 19 13 30 13 30 0z"/>
<path d="M4181 4467 c-2 -54 18 -123 40 -143 15 -13 19 -31 19 -79 0 -62 0
-63 31 -69 17 -3 76 -6 130 -6 l99 0 0 48 0 48 -107 -2 -108 -2 105 8 c58 4
106 8 108 9 1 0 2 35 2 76 0 80 -13 100 -25 38 l-7 -37 -17 23 c-21 27 -40 21
-42 -12 -1 -17 -3 -15 -11 11 -12 36 -22 39 -46 15 -16 -16 -17 -15 -20 1 -6
28 -34 14 -48 -24 l-12 -35 -1 33 c-1 30 -3 32 -16 18 -8 -8 -15 -21 -15 -30
0 -27 -20 -28 -30 -1 -5 14 -14 53 -19 88 -7 49 -9 54 -10 24z"/>
<path d="M278 4283 c7 -3 16 -2 19 1 4 3 -2 6 -13 5 -11 0 -14 -3 -6 -6z"/>
<path d="M1408 4283 c7 -3 16 -2 19 1 4 3 -2 6 -13 5 -11 0 -14 -3 -6 -6z"/>
<path d="M2528 4283 c7 -3 16 -2 19 1 4 3 -2 6 -13 5 -11 0 -14 -3 -6 -6z"/>
<path d="M3658 4283 c7 -3 16 -2 19 1 4 3 -2 6 -13 5 -11 0 -14 -3 -6 -6z"/>
<path d="M338 4264 c94 -47 -18 -97 -303 -137 -17 -3 6 -3 50 -1 139 7 295 62
295 104 0 21 -36 50 -60 50 -8 0 0 -8 18 -16z"/>
<path d="M1468 4260 c27 -17 31 -23 22 -39 -13 -26 -100 -57 -208 -76 -104
-18 -364 -21 -439 -5 -67 15 -103 41 -85 63 7 8 26 20 43 27 16 7 28 15 25 17
-6 7 -61 -23 -76 -42 -13 -15 -11 -20 12 -40 106 -91 652 -54 738 50 13 15 11
20 -13 41 -16 13 -33 24 -40 24 -7 0 3 -9 21 -20z"/>
<path d="M2588 4262 c41 -20 38 -40 -12 -68 -77 -43 -184 -59 -401 -59 -170 0
-207 3 -247 18 -54 21 -59 37 -22 66 15 12 23 21 18 21 -5 0 -20 -9 -33 -19
-90 -69 121 -126 386 -103 204 18 344 62 351 109 3 23 -31 53 -58 52 -8 0 0
-8 18 -17z"/>
<path d="M3718 4260 c27 -17 31 -23 22 -39 -13 -26 -101 -58 -213 -77 -136
-23 -426 -17 -482 11 -22 11 -40 27 -40 35 0 8 18 25 40 37 22 12 36 23 32 23
-15 0 -63 -28 -77 -45 -13 -15 -11 -20 12 -40 41 -35 125 -49 288 -49 217 1
395 39 447 96 17 19 17 21 -10 44 -16 13 -33 24 -40 24 -7 0 3 -9 21 -20z"/>
<path d="M4152 4229 c-43 -28 -40 -58 8 -81 60 -29 340 -53 340 -29 0 6 -50
10 -114 10 -155 1 -260 26 -254 60 2 8 18 26 37 38 43 29 28 30 -17 2z"/>
<path d="M857 3751 c23 -4 49 -13 57 -20 15 -12 15 -16 1 -31 -22 -25 -18 -49
9 -56 30 -7 63 9 71 36 10 32 69 27 106 -9 16 -16 29 -25 29 -20 0 6 -12 21
-26 34 -20 18 -40 26 -73 27 -25 1 -55 2 -67 3 -11 0 -33 11 -49 23 -18 14
-40 22 -64 21 l-36 -2 42 -6z"/>
<path d="M1975 3751 c22 -4 51 -13 65 -20 l25 -12 -24 20 c-16 15 -36 21 -65
20 l-41 -2 40 -6z"/>
<path d="M3107 3751 c23 -4 49 -13 57 -20 15 -12 15 -16 1 -31 -8 -9 -15 -19
-15 -23 0 -3 -11 -23 -25 -43 -29 -42 -31 -62 -10 -90 14 -18 14 -17 3 9 -10
24 -9 34 7 63 16 30 22 34 46 29 33 -8 65 8 74 35 14 43 113 12 130 -41 4 -11
9 -18 12 -16 9 10 -26 63 -49 75 -12 6 -51 13 -85 15 -43 3 -70 11 -89 26 -17
13 -40 21 -63 20 l-36 -2 42 -6z"/>
<path d="M4225 3751 c22 -4 51 -13 63 -20 l24 -13 -21 -14 c-12 -9 -21 -22
-21 -30 0 -9 -9 -27 -20 -41 -27 -35 -25 -75 5 -111 38 -45 33 -75 -16 -97
-22 -10 -44 -26 -50 -36 -21 -41 -3 -155 31 -189 13 -13 18 -34 19 -75 0 -32
3 -60 6 -63 9 -9 106 -20 183 -21 l72 -1 0 49 0 50 -37 4 -38 4 38 1 37 2 0
75 c0 77 -13 99 -25 43 l-7 -32 -19 23 c-22 27 -39 20 -40 -17 -1 -26 -1 -26
-10 5 -12 42 -22 46 -47 22 -17 -15 -22 -16 -22 -5 0 19 -19 31 -31 19 -5 -5
-11 -23 -12 -40 -2 -36 -17 -33 -17 3 0 23 -2 24 -15 10 -8 -8 -15 -21 -15
-30 0 -37 -20 -22 -35 26 -20 69 -19 121 3 140 37 33 59 39 89 23 33 -17 112
-19 166 -4 35 9 37 12 37 50 0 37 -2 40 -22 35 l-23 -6 23 11 c18 10 22 20 22
64 0 39 -4 54 -16 59 -14 5 -15 1 -10 -28 5 -28 4 -34 -11 -32 -10 0 -24 9
-31 19 -29 39 -47 14 -45 -60 1 -7 -3 -13 -8 -13 -5 0 -9 8 -9 18 0 49 -49 48
-51 -2 l-1 -31 -11 28 c-12 30 -34 31 -29 1 2 -17 0 -16 -18 5 -24 28 -26 68
-5 98 12 18 22 21 46 16 31 -6 69 17 69 44 0 25 74 16 105 -12 15 -14 25 -20
23 -14 -9 28 -55 48 -115 52 -43 3 -70 11 -89 26 -18 14 -40 21 -68 20 l-41
-2 40 -6z m210 -271 c-11 -5 -38 -8 -60 -8 l-40 1 45 7 c64 10 78 10 55 0z
m-132 -337 c-7 -2 -21 -2 -30 0 -10 3 -4 5 12 5 17 0 24 -2 18 -5z m90 -10
c-7 -2 -19 -2 -25 0 -7 3 -2 5 12 5 14 0 19 -2 13 -5z"/>
<path d="M2065 3713 c-27 -7 -45 -23 -45 -40 0 -8 -9 -26 -20 -40 -27 -35 -25
-75 5 -111 35 -42 33 -77 -4 -90 -49 -17 -71 -47 -71 -95 0 -51 27 -136 45
-144 9 -3 13 -25 14 -65 0 -33 3 -63 6 -66 9 -9 105 -20 180 -21 88 -1 180 13
268 40 62 20 67 24 67 50 0 17 5 29 13 29 9 0 9 2 0 8 -7 4 -17 32 -23 61 -13
70 -32 131 -40 131 -3 0 -11 -5 -18 -12 -9 -9 -12 -9 -12 0 0 7 -9 12 -21 12
-18 0 -20 -4 -14 -30 4 -19 3 -30 -4 -30 -6 0 -11 14 -11 31 0 20 -4 29 -12
26 -8 -2 -12 -20 -11 -43 1 -36 1 -37 -8 -12 -13 34 -39 45 -39 17 0 -11 -4
-17 -10 -14 -6 4 -10 -14 -11 -47 -1 -48 -2 -50 -8 -18 -13 68 -44 83 -56 28
l-7 -32 -20 24 c-16 20 -21 21 -29 9 -5 -7 -9 -23 -10 -34 0 -14 -4 -10 -12
12 -15 40 -21 43 -46 21 -18 -15 -19 -15 -24 4 -8 29 -30 17 -38 -21 -9 -44
-19 -51 -19 -12 0 27 -2 30 -13 19 -7 -7 -16 -21 -20 -31 -10 -27 -23 -13 -36
37 -23 92 -13 124 47 155 18 10 27 10 39 -1 25 -20 158 -17 216 5 43 17 47 21
47 53 0 33 1 34 38 34 55 0 95 -29 112 -81 8 -28 15 -37 18 -26 6 26 -30 90
-58 104 -14 7 -45 13 -70 13 l-46 0 -18 58 c-28 90 -34 100 -58 115 -25 16
-120 28 -153 20z m159 -38 c29 -27 36 -61 10 -51 -14 5 -16 1 -11 -28 4 -27 2
-33 -11 -32 -9 0 -23 9 -30 19 -29 39 -47 14 -45 -60 1 -7 -3 -13 -8 -13 -5 0
-9 8 -9 19 0 10 -7 24 -16 32 -19 15 -33 -1 -35 -41 -1 -25 -1 -25 -11 3 -9
26 -36 33 -30 8 4 -18 -17 -12 -28 8 -14 28 -12 63 5 88 12 18 22 21 46 16 31
-6 69 17 69 44 0 24 74 16 104 -12z m56 -145 c0 -9 -51 -40 -67 -40 -6 0 56
48 65 50 1 0 2 -4 2 -10z m-127 -57 c-7 -2 -19 -2 -25 0 -7 3 -2 5 12 5 14 0
19 -2 13 -5z m327 -240 c0 -9 -3 -13 -7 -10 -3 4 -11 0 -17 -8 -6 -8 -24 -16
-39 -19 -16 -3 -34 -10 -41 -15 -15 -13 -122 -37 -200 -45 -86 -9 -63 2 27 14
42 5 102 19 134 30 32 11 63 21 68 23 6 1 12 4 15 7 5 6 53 39 58 39 1 1 2 -6
2 -16z m-427 -90 c-7 -2 -21 -2 -30 0 -10 3 -4 5 12 5 17 0 24 -2 18 -5z"/>
<path d="M1 3586 c-1 -60 1 -67 14 -56 11 9 15 9 15 1 0 -6 -7 -14 -15 -17
-10 -4 -15 -20 -15 -50 l0 -45 30 16 c25 13 29 19 23 45 -5 29 -4 30 33 30 57
0 97 -29 113 -80 16 -54 26 -46 11 9 -14 53 -56 81 -120 81 l-46 0 -16 53
c-10 28 -19 59 -22 67 -2 8 -5 -16 -5 -54z"/>
<path d="M865 3620 c-20 -38 -14 -69 20 -106 37 -40 33 -66 -14 -85 -22 -9
-47 -29 -57 -44 -15 -23 -16 -34 -6 -87 6 -34 23 -77 36 -97 20 -29 25 -47 23
-88 -1 -36 2 -54 11 -58 7 -2 61 -8 120 -11 119 -7 221 5 320 37 57 19 62 23
62 50 0 16 5 29 13 29 7 0 8 3 2 8 -10 7 -45 149 -46 187 -3 107 -48 165 -129
165 -47 0 -49 1 -60 35 -11 33 -45 75 -60 75 -4 0 -5 -12 -2 -26 3 -16 -1 -30
-9 -35 -21 -13 -26 -11 -32 11 -3 12 -14 20 -26 20 -18 0 -21 -6 -21 -47 l-1
-48 -14 33 c-17 39 -39 38 -43 -1 -4 -31 -22 -37 -22 -8 0 28 -20 37 -27 12
-8 -30 -18 -26 -34 10 -11 28 -10 36 4 62 10 16 16 32 13 34 -2 3 -12 -10 -21
-27z m285 -95 c0 -7 -77 -45 -92 -45 -7 0 10 11 37 24 59 29 55 27 55 21z
m145 -45 c31 -29 52 -104 35 -125 -8 -10 -17 -12 -24 -6 -7 6 -25 9 -41 7 -27
-3 -30 -7 -29 -40 1 -19 -3 -33 -7 -30 -5 3 -9 11 -9 18 0 8 -6 19 -14 25 -20
17 -36 -14 -36 -68 0 -23 -4 -41 -10 -41 -5 0 -10 13 -10 28 0 30 -16 52 -37
52 -8 0 -13 -12 -13 -30 0 -35 -10 -38 -28 -10 -16 25 -32 17 -32 -16 0 -13
-4 -24 -10 -24 -5 0 -10 13 -10 29 0 37 -15 47 -36 27 -20 -20 -34 -20 -34 -1
0 20 -26 19 -34 -1 -3 -9 -7 -28 -7 -42 -1 -20 -2 -22 -6 -7 -10 46 -13 49
-28 29 -8 -10 -15 -28 -15 -39 -1 -41 -28 14 -39 81 -13 74 -6 96 38 119 26
13 33 13 68 -1 48 -21 155 -14 209 12 32 16 40 25 42 53 3 33 4 33 48 28 27
-3 55 -13 69 -27z m-262 -7 c-7 -2 -21 -2 -30 0 -10 3 -4 5 12 5 17 0 24 -2
18 -5z m234 -170 c-3 -10 -5 -4 -5 12 0 17 2 24 5 18 2 -7 2 -21 0 -30z m93
-69 c0 -10 -6 -14 -15 -10 -8 3 -18 -2 -23 -11 -6 -10 -12 -12 -16 -5 -7 12
28 35 38 25 3 -3 6 -1 6 5 0 7 2 12 5 12 3 0 5 -7 5 -16z m-66 -32 c3 -5 -25
-18 -62 -30 -76 -25 -192 -43 -192 -30 0 4 18 8 39 8 41 0 169 35 186 51 11
11 22 12 29 1z m-366 -59 c-10 -2 -26 -2 -35 0 -10 3 -2 5 17 5 19 0 27 -2 18
-5z m102 -3 c0 -5 -12 -10 -27 -9 l-28 1 25 8 c14 4 26 8 28 9 1 1 2 -3 2 -9z"/>
<path d="M3346 3604 c4 -17 2 -29 -7 -35 -21 -13 -26 -11 -32 11 -3 12 -14 20
-26 20 -18 0 -21 -6 -22 -47 0 -42 -1 -45 -10 -23 -19 48 -49 48 -49 -1 0 -38
-16 -37 -24 2 -6 30 -26 32 -26 3 0 -8 -5 -14 -11 -14 -6 0 -3 -7 5 -16 29
-28 20 -57 -23 -75 -61 -26 -75 -56 -62 -131 6 -35 21 -76 33 -92 16 -22 22
-45 22 -85 1 -31 6 -59 12 -63 6 -4 60 -10 120 -14 121 -7 223 5 322 37 57 19
62 23 62 49 0 16 6 31 13 33 10 4 10 6 0 6 -7 1 -13 13 -13 29 0 15 -7 52 -16
82 -9 30 -16 64 -16 75 0 11 -4 41 -10 67 -14 66 -53 98 -118 98 -47 0 -48 1
-65 42 -24 60 -72 94 -59 42z m34 -94 c-25 -19 -94 -41 -127 -39 -10 0 9 7 42
15 33 8 67 21 75 29 8 8 19 15 25 15 5 0 -1 -9 -15 -20z m165 -30 c31 -29 52
-104 35 -125 -9 -11 -16 -13 -24 -5 -21 21 -36 10 -37 -27 l-2 -38 -6 33 c-8
42 -26 38 -25 -6 l1 -33 -18 31 c-19 30 -46 33 -35 3 3 -8 1 -11 -4 -8 -6 4
-10 -10 -10 -34 0 -22 -4 -42 -9 -45 -5 -3 -8 6 -8 19 0 29 -19 55 -39 55 -9
0 -14 -11 -14 -30 0 -35 -10 -38 -28 -10 -16 25 -32 17 -32 -16 0 -13 -4 -24
-10 -24 -5 0 -10 13 -10 29 0 37 -15 47 -36 27 -20 -20 -34 -20 -34 -1 0 8 -7
15 -15 15 -10 0 -17 -15 -22 -42 l-7 -43 -8 34 c-9 31 -10 32 -23 15 -8 -11
-15 -28 -15 -39 -1 -38 -27 11 -39 76 -15 73 -9 92 33 119 32 19 35 19 72 4
51 -21 158 -14 211 13 31 16 39 26 41 53 3 32 4 32 48 27 27 -3 55 -13 69 -27z
m65 -243 c0 -15 -67 -50 -80 -42 -4 3 -10 1 -12 -5 -4 -13 -153 -50 -197 -49
-25 1 -29 3 -11 5 96 15 151 29 193 50 26 14 52 22 56 19 5 -2 12 2 15 11 3 8
10 12 16 9 5 -3 10 -1 10 4 0 6 2 11 5 11 3 0 5 -6 5 -13z m-432 -94 c-10 -2
-26 -2 -35 0 -10 3 -2 5 17 5 19 0 27 -2 18 -5z"/>
<path d="M105 3350 c-4 -6 -4 -25 -1 -43 6 -31 5 -31 -5 -5 -13 34 -39 45 -39
17 0 -11 -4 -17 -10 -14 -6 4 -10 -13 -11 -42 -1 -46 -1 -46 -9 -15 -16 68
-30 60 -30 -16 0 -63 2 -72 18 -72 26 0 111 30 146 51 16 10 36 15 44 11 10
-3 13 -1 8 6 -3 6 -2 13 3 16 5 4 8 -2 7 -11 -2 -10 -9 -18 -17 -18 -8 0 -17
-4 -20 -8 -8 -12 -140 -57 -166 -57 -21 0 -23 -5 -23 -54 l0 -54 43 5 c60 7
156 32 189 49 19 10 28 22 28 39 0 14 5 25 11 25 6 0 3 7 -5 16 -9 8 -16 28
-16 43 0 25 -27 131 -36 140 -2 2 -10 -2 -19 -9 -10 -8 -15 -9 -15 -1 0 6 -10
11 -21 11 -18 0 -21 -5 -17 -30 3 -16 1 -30 -4 -30 -4 0 -8 14 -8 30 0 30 -13
40 -25 20z"/>
<path d="M319 3147 c113 -44 22 -102 -205 -132 -116 -15 -159 -32 -54 -21 158
17 290 58 314 98 14 23 -16 54 -59 62 -28 6 -28 5 4 -7z"/>
<path d="M1452 3144 c47 -20 53 -38 22 -63 -104 -82 -609 -110 -699 -39 -24
19 -25 22 -10 38 9 10 30 24 46 30 16 7 28 15 25 17 -8 8 -83 -36 -90 -52 -8
-22 25 -52 76 -67 66 -20 392 -17 491 5 124 27 197 65 197 101 0 10 -64 46
-80 45 -8 0 2 -7 22 -15z"/>
<path d="M2569 3147 c84 -32 58 -72 -69 -106 -239 -63 -620 -48 -620 24 0 9
15 24 33 35 17 11 27 20 20 20 -7 0 -25 -11 -40 -24 -23 -20 -26 -28 -17 -43
29 -49 132 -67 339 -60 222 8 377 46 409 99 14 23 -16 54 -59 62 -28 6 -28 5
4 -7z"/>
<path d="M3700 3144 c19 -8 38 -20 42 -27 12 -19 -21 -45 -86 -66 -208 -68
-603 -66 -648 3 -9 14 16 41 53 56 16 7 28 15 25 17 -8 9 -84 -36 -90 -54 -9
-23 21 -48 77 -65 66 -20 393 -17 490 4 134 30 203 68 190 106 -5 14 -55 42
-75 42 -7 -1 3 -8 22 -16z"/>
<path d="M4146 3099 c-14 -11 -26 -26 -26 -33 0 -45 116 -76 275 -74 l110 1
-130 7 c-137 8 -172 14 -217 37 -37 18 -35 39 5 63 17 11 27 20 21 20 -6 0
-23 -9 -38 -21z"/>
<path d="M820 2632 c0 -4 16 -8 35 -9 20 -1 47 -9 61 -18 15 -9 23 -12 19 -5
-16 26 -115 53 -115 32z"/>
<path d="M1947 2633 c-3 -5 9 -9 27 -9 19 0 46 -8 61 -18 27 -18 27 -18 6 -32
-12 -9 -21 -21 -21 -27 0 -7 -9 -23 -20 -37 -23 -30 -25 -77 -5 -104 8 -11 15
-15 15 -9 0 7 -4 15 -10 18 -16 10 -11 65 8 88 12 16 28 22 57 22 34 0 42 4
53 29 13 25 18 28 50 23 38 -7 82 -41 83 -66 0 -10 3 -11 5 -4 8 19 -14 51
-45 68 -16 8 -56 16 -89 18 -40 2 -68 9 -80 20 -22 20 -87 34 -95 20z"/>
<path d="M3075 2630 c-4 -7 2 -9 17 -5 13 3 38 -2 60 -14 21 -10 35 -14 32 -9
-8 12 -68 38 -88 38 -8 0 -18 -5 -21 -10z"/>
<path d="M4197 2633 c-3 -4 12 -8 33 -8 24 0 46 -8 59 -19 21 -19 21 -19 1
-33 -11 -8 -20 -19 -20 -25 0 -5 -10 -23 -21 -40 -26 -35 -27 -68 -5 -99 9
-13 16 -18 16 -12 0 7 -4 15 -10 18 -15 9 -12 63 6 90 12 19 20 22 37 16 31
-12 66 4 77 34 12 33 46 33 94 0 20 -13 36 -20 36 -15 0 18 -64 51 -95 48 -17
-1 -36 1 -43 6 -7 4 -20 5 -29 2 -9 -4 -25 2 -38 14 -24 22 -89 38 -98 23z"/>
<path d="M933 2584 c-18 -8 -33 -21 -33 -30 0 -9 -12 -30 -26 -47 -31 -37 -27
-73 12 -120 19 -23 24 -38 20 -59 -7 -38 15 -48 104 -48 51 0 86 6 122 22 45
19 49 24 46 50 -6 36 20 45 77 26 40 -13 48 -24 84 -108 10 -22 10 -21 5 10
-15 82 -70 128 -139 117 -29 -5 -33 -2 -44 30 -13 35 -44 73 -59 73 -5 0 -6
-14 -4 -31 3 -22 1 -30 -7 -25 -6 4 -11 2 -11 -3 0 -19 -15 -12 -25 12 -18 40
-40 27 -45 -28 -5 -48 -5 -49 -12 -17 -6 23 -13 32 -28 32 -16 0 -20 -7 -20
-30 0 -16 -4 -30 -10 -30 -5 0 -10 9 -10 19 0 29 -19 36 -28 11 -7 -18 -10
-19 -19 -8 -22 26 -24 62 -4 94 16 26 23 30 50 26 34 -5 71 19 71 45 0 20 50
16 88 -7 17 -11 32 -25 32 -32 0 -6 3 -8 7 -5 3 4 -4 18 -17 32 -21 22 -39 28
-120 40 -14 2 -40 -3 -57 -11z m217 -182 c0 -8 -64 -42 -78 -42 -4 0 11 11 33
24 48 29 45 28 45 18z m-93 -48 c-3 -3 -12 -4 -19 -1 -8 3 -5 6 6 6 11 1 17
-2 13 -5z"/>
<path d="M3183 2584 c-18 -8 -33 -21 -33 -30 0 -9 -11 -29 -25 -46 -33 -39
-32 -70 6 -113 25 -28 30 -41 25 -65 -4 -23 -1 -32 15 -41 32 -17 177 -7 222
15 36 18 38 22 34 55 -2 20 -13 56 -24 81 -11 25 -18 52 -16 60 4 11 2 12 -5
2 -5 -7 -15 -10 -24 -7 -12 5 -14 -1 -10 -26 3 -21 1 -30 -6 -25 -6 3 -14 1
-17 -5 -5 -7 -12 -2 -19 13 -20 40 -40 28 -47 -27 -3 -27 -7 -41 -7 -29 -4 47
-52 61 -52 14 0 -16 -4 -30 -10 -30 -5 0 -10 9 -10 19 0 30 -19 35 -29 9 -8
-22 -9 -22 -26 14 -17 35 -17 37 2 70 16 28 24 33 52 30 34 -4 71 19 71 45 0
29 98 1 119 -34 6 -10 11 -13 11 -7 0 25 -49 55 -106 64 -32 6 -59 10 -59 9 0
0 -15 -7 -32 -15z m217 -184 c0 -5 -5 -10 -11 -10 -5 0 -7 5 -4 10 3 6 8 10
11 10 2 0 4 -4 4 -10z m-44 -25 c-11 -8 -25 -15 -30 -15 -6 1 0 7 14 15 32 19
40 18 16 0z m-49 -21 c-3 -3 -12 -4 -19 -1 -8 3 -5 6 6 6 11 1 17 -2 13 -5z"/>
<path d="M1 2461 c-1 -64 1 -72 14 -61 9 7 15 8 15 2 0 -5 -7 -12 -15 -16 -16
-6 -22 -86 -7 -86 21 0 46 30 47 56 0 27 2 29 40 27 54 -4 86 -30 108 -88 16
-44 16 -50 3 -64 -12 -12 -19 -13 -28 -3 -23 23 -41 14 -36 -17 2 -17 1 -28
-4 -25 -4 3 -8 14 -8 25 0 12 -5 19 -13 16 -7 -2 -11 -18 -10 -38 2 -34 2 -34
-8 -6 -11 29 -39 38 -39 12 0 -8 -4 -15 -10 -15 -5 0 -10 -21 -11 -47 -1 -46
-1 -47 -9 -15 -16 68 -30 60 -30 -16 l0 -72 27 6 c16 4 49 15 76 24 26 10 49
15 52 11 4 -7 -63 -31 -127 -45 -26 -6 -28 -10 -28 -56 0 -42 3 -50 18 -50 37
0 137 22 190 42 l55 20 -7 73 c-4 40 -11 87 -17 106 -6 19 -12 55 -14 81 -9
102 -51 151 -133 154 -41 2 -46 5 -60 35 -8 19 -18 50 -22 69 -6 28 -8 20 -9
-39z m235 -353 c4 -6 3 -8 -3 -5 -6 4 -13 1 -16 -7 -7 -17 -45 -27 -54 -14 -3
7 -1 8 5 4 7 -4 12 -2 12 5 0 7 3 10 6 6 4 -3 13 0 21 8 17 18 20 18 29 3z"/>
<path d="M2223 2477 c4 -28 3 -35 -9 -30 -8 3 -14 -1 -14 -8 -1 -8 -8 -2 -16
14 -28 52 -50 29 -47 -50 1 -23 -15 -14 -19 10 -2 14 -10 22 -23 22 -15 0 -21
-8 -25 -35 l-6 -35 -8 33 c-12 51 -32 33 -28 -26 3 -49 2 -52 -30 -68 -55 -28
-68 -44 -68 -86 0 -57 19 -124 41 -144 15 -13 19 -31 19 -79 l0 -62 38 -7 c60
-10 253 -7 317 5 32 6 83 20 112 31 52 19 53 20 53 61 0 23 -7 74 -16 112 -9
39 -18 88 -19 111 -2 22 -11 59 -20 82 -14 34 -25 44 -61 58 -24 9 -55 14 -69
12 -23 -5 -28 0 -46 41 -11 26 -29 52 -41 60 -20 12 -21 12 -15 -22z m57 -76
c0 -11 -93 -51 -117 -51 -10 1 6 9 35 19 29 10 58 23 65 30 13 13 17 14 17 2z
m130 -40 c14 -10 33 -40 43 -66 16 -43 16 -50 3 -63 -12 -12 -18 -13 -30 -3
-22 19 -36 4 -29 -29 3 -19 1 -30 -6 -30 -6 0 -11 14 -11 31 0 20 -4 29 -12
26 -8 -2 -12 -18 -10 -38 2 -33 2 -33 -10 -10 -15 29 -38 39 -38 17 0 -9 -4
-16 -10 -16 -5 0 -11 -21 -11 -47 -2 -34 -3 -39 -6 -18 -5 29 -28 65 -43 65
-4 0 -11 -17 -15 -37 l-7 -37 -18 24 c-20 27 -34 21 -43 -15 -3 -16 -6 -13
-12 13 -9 37 -21 40 -46 10 l-19 -21 0 21 c0 47 -28 33 -48 -23 l-10 -30 -1
33 c-1 30 -3 32 -16 18 -8 -8 -15 -21 -15 -30 0 -26 -20 -28 -29 -3 -15 38
-24 115 -17 142 7 29 82 73 89 52 2 -8 33 -12 103 -12 119 0 164 18 164 64 0
15 3 31 7 35 12 11 75 -3 103 -23z m75 -251 c7 -12 -52 -43 -67 -34 -6 4 3 14
23 25 41 22 37 21 44 9z m-111 -57 c-76 -27 -176 -43 -257 -42 l-82 2 110 7
c73 5 134 16 180 32 39 13 74 22 79 19 5 -2 -8 -11 -30 -18z"/>
<path d="M4473 2478 c4 -29 3 -36 -9 -31 -8 3 -14 -1 -14 -8 -1 -8 -8 -2 -16
14 -22 40 -44 35 -45 -10 -1 -21 -1 -41 0 -45 0 -5 -3 -8 -8 -8 -5 0 -11 10
-13 23 -5 35 -41 29 -49 -8 l-6 -30 -8 28 c-13 46 -30 26 -27 -31 3 -49 1 -53
-25 -63 -49 -18 -73 -49 -73 -91 0 -57 19 -124 41 -144 15 -13 19 -31 19 -79
l0 -62 38 -7 c20 -3 79 -6 130 -6 l92 0 0 48 0 47 -102 -1 c-57 0 -76 1 -43 2
33 2 79 6 103 10 l42 5 0 75 c0 79 -13 99 -25 37 l-7 -37 -17 23 c-21 27 -40
21 -42 -12 -1 -17 -3 -15 -11 11 -12 36 -22 39 -46 16 -14 -15 -16 -15 -23 5
-10 26 -39 17 -39 -13 0 -11 -5 -28 -10 -36 -7 -11 -10 -7 -10 18 0 30 -2 32
-15 18 -8 -8 -15 -24 -15 -35 0 -28 -18 -27 -29 2 -15 38 -24 115 -17 142 7
28 82 73 88 53 5 -14 112 -23 173 -14 l45 7 0 44 0 44 -35 -15 c-19 -7 -42
-14 -52 -14 -10 1 5 9 32 18 l50 17 3 51 c2 38 -1 54 -14 65 -16 13 -17 11
-11 -23z"/>
<path d="M3481 2385 c59 -16 66 -20 83 -53 24 -47 30 -98 12 -105 -8 -3 -18
-2 -21 3 -15 24 -35 9 -36 -27 -1 -36 -2 -36 -8 -9 -3 16 -12 31 -20 34 -11 4
-13 -3 -8 -32 7 -42 1 -47 -13 -11 -5 14 -17 25 -26 25 -10 0 -14 -5 -10 -15
3 -8 1 -15 -4 -15 -6 0 -10 -18 -10 -40 0 -22 -5 -40 -11 -40 -6 0 -9 6 -6 13
6 18 -22 69 -36 64 -7 -2 -14 -19 -17 -38 -6 -34 -6 -34 -20 -11 -20 29 -40
28 -40 -3 0 -14 -4 -25 -10 -25 -5 0 -10 11 -10 24 0 33 -16 41 -37 21 -15
-16 -18 -15 -33 6 l-18 22 -11 -21 c-6 -11 -11 -31 -12 -44 -1 -18 -3 -15 -11
12 l-11 35 -17 -39 c-17 -37 -18 -38 -29 -17 -7 11 -16 46 -22 76 -12 64 -3
87 44 115 38 23 29 27 -13 5 -16 -8 -34 -25 -41 -36 -16 -31 -3 -103 32 -177
22 -46 30 -75 27 -105 -2 -39 -1 -42 27 -48 59 -13 273 -9 344 6 110 23 141
39 142 72 2 52 -2 88 -17 148 -8 33 -17 81 -18 106 -7 88 -57 141 -133 138
-22 -1 -18 -3 18 -14z m126 -277 c-2 -7 -12 -12 -22 -10 -10 2 -14 -1 -10 -7
4 -7 0 -8 -11 -4 -12 4 -15 3 -10 -5 5 -8 2 -10 -8 -6 -9 3 -16 2 -16 -4 0 -6
-13 -15 -30 -21 -51 -17 -33 2 33 36 69 35 81 39 74 21z m-152 -67 c-18 -16
-128 -31 -214 -29 l-86 1 110 8 c61 4 124 12 140 17 39 13 62 15 50 3z"/>
<path d="M843 2290 c-18 -11 -35 -31 -39 -45 -9 -35 22 -157 43 -173 12 -8 18
-31 21 -76 l4 -64 37 -6 c67 -11 259 -6 328 8 107 23 143 41 144 74 2 52 -2
87 -18 147 -8 33 -15 65 -16 72 0 8 -6 9 -18 2 -11 -6 -20 -5 -24 1 -15 24
-35 9 -37 -27 -1 -37 -1 -37 -5 -5 -3 21 -10 32 -20 32 -12 0 -14 -7 -10 -35
7 -41 1 -46 -13 -10 -5 14 -17 25 -26 25 -10 0 -14 -5 -10 -15 3 -8 1 -15 -4
-15 -5 0 -10 -21 -12 -47 -4 -48 -7 -46 -24 12 -13 41 -38 39 -44 -5 -5 -35
-6 -35 -20 -12 -20 29 -40 28 -40 -3 0 -14 -4 -25 -10 -25 -5 0 -10 11 -10 24
0 33 -17 42 -40 21 -17 -16 -19 -15 -31 6 -11 22 -12 22 -25 4 -8 -10 -14 -33
-15 -49 -1 -33 -3 -30 -14 19 l-8 30 -17 -39 c-17 -37 -18 -38 -29 -17 -7 11
-16 46 -22 76 -12 64 -3 87 44 115 18 11 28 20 22 20 -5 0 -25 -9 -42 -20z
m517 -185 c0 -8 -4 -15 -9 -15 -13 0 -22 16 -14 24 11 11 23 6 23 -9z m-36
-14 c3 -5 -8 -14 -24 -20 -34 -11 -39 -5 -12 15 20 16 29 17 36 5z m-64 -30
c0 -8 -43 -22 -130 -41 -25 -5 -85 -9 -135 -8 l-90 1 115 8 c70 5 137 15 170
27 66 24 70 24 70 13z"/>
<path d="M278 2033 c7 -3 16 -2 19 1 4 3 -2 6 -13 5 -11 0 -14 -3 -6 -6z"/>
<path d="M1434 2025 c56 -21 68 -33 56 -55 -25 -47 -238 -91 -445 -92 -146 -1
-236 13 -280 44 l-30 21 19 -22 c37 -41 115 -55 296 -54 156 1 225 9 346 42
49 13 109 52 109 70 0 19 -43 49 -80 56 -24 4 -23 2 9 -10z"/>
<path d="M2528 2033 c7 -3 16 -2 19 1 4 3 -2 6 -13 5 -11 0 -14 -3 -6 -6z"/>
<path d="M3684 2024 c82 -30 80 -60 -7 -93 -204 -76 -672 -70 -672 9 0 8 23
27 50 42 57 31 54 38 -4 9 -57 -29 -68 -47 -46 -71 57 -63 370 -76 591 -24
121 28 183 73 146 107 -19 17 -66 37 -85 36 -7 0 6 -7 27 -15z"/>
<path d="M354 2006 c54 -44 -53 -92 -268 -121 -75 -10 -82 -13 -41 -14 110 -2
318 58 332 97 7 18 -8 44 -28 50 -8 2 -7 -3 5 -12z"/>
<path d="M2604 2005 c62 -47 -93 -105 -334 -125 -173 -14 -360 10 -385 49 -10
17 13 41 60 62 22 11 29 16 15 13 -88 -21 -113 -75 -49 -106 155 -76 719 -13
719 81 0 19 -19 41 -34 41 -6 0 -3 -7 8 -15z"/>
<path d="M4170 1988 c-59 -30 -62 -64 -10 -90 61 -30 299 -49 330 -27 11 8 4
9 -30 5 -113 -13 -330 26 -330 59 0 17 28 40 70 58 19 9 30 16 25 16 -6 1 -31
-9 -55 -21z"/>
<path d="M783 1980 c-46 -27 -41 -34 5 -8 46 27 48 28 36 28 -5 0 -24 -9 -41
-20z"/>
<path d="M858 1501 c23 -4 50 -15 59 -24 15 -15 15 -17 0 -23 -9 -3 -17 -17
-17 -30 0 -46 80 -41 95 6 10 32 69 27 106 -9 16 -16 29 -25 29 -20 0 6 -12
21 -26 34 -26 24 -36 26 -136 29 -13 1 -25 4 -28 7 -20 22 -60 39 -90 38 -34
-1 -34 -2 8 -8z"/>
<path d="M1975 1501 c22 -4 51 -13 65 -21 l24 -13 -22 -15 c-12 -8 -22 -21
-22 -29 0 -8 -9 -26 -20 -40 -27 -35 -25 -75 6 -112 19 -23 25 -39 22 -61 -3
-19 1 -35 10 -43 24 -19 159 -15 215 6 43 17 47 21 47 53 0 33 1 34 38 34 55
0 95 -29 112 -81 8 -28 15 -37 18 -26 6 26 -30 90 -58 104 -14 7 -45 13 -70
13 l-46 0 -18 58 c-38 119 -48 128 -143 135 -43 3 -70 11 -89 26 -18 14 -40
21 -68 20 l-41 -2 40 -6z m249 -76 c29 -27 36 -61 10 -51 -14 5 -16 1 -11 -28
4 -27 2 -33 -11 -32 -9 0 -23 9 -30 19 -20 26 -42 21 -43 -10 0 -16 -4 -37 -9
-48 -8 -20 -9 -19 -9 1 -1 25 -25 49 -41 39 -5 -3 -10 -21 -11 -38 l-1 -32
-10 28 c-9 26 -36 33 -30 8 4 -18 -17 -12 -28 8 -14 28 -12 63 5 88 12 18 22
21 46 16 31 -6 69 17 69 44 0 24 74 16 104 -12z m56 -144 c0 -11 -89 -56 -96
-48 -3 2 8 9 23 15 15 5 37 17 48 26 24 18 25 19 25 7z m-142 -58 c-15 -2 -42
-2 -60 0 -18 2 -6 4 27 4 33 0 48 -2 33 -4z"/>
<path d="M3108 1501 c23 -4 50 -15 59 -24 15 -15 15 -17 0 -23 -9 -3 -17 -12
-17 -20 0 -7 -11 -30 -25 -50 -29 -42 -31 -62 -10 -90 14 -18 14 -17 3 9 -10
24 -9 34 7 63 16 30 22 34 46 29 33 -8 65 8 74 35 14 43 113 12 130 -41 4 -11
9 -18 12 -16 9 10 -26 63 -49 75 -12 6 -51 13 -85 15 -43 3 -70 11 -89 26 -17
13 -40 21 -63 20 l-36 -2 43 -6z"/>
<path d="M4225 1501 c22 -4 51 -13 63 -20 l24 -13 -21 -14 c-12 -9 -21 -22
-21 -30 0 -9 -9 -27 -20 -41 -27 -35 -25 -75 5 -111 32 -38 33 -78 3 -88 -13
-3 -35 -15 -50 -26 -24 -16 -28 -26 -28 -66 0 -61 16 -118 41 -143 14 -14 19
-33 19 -78 0 -47 4 -60 18 -66 9 -4 68 -9 130 -12 l112 -6 0 51 0 51 -37 4
-38 4 38 1 37 2 0 75 c0 77 -13 99 -25 43 l-7 -32 -19 23 c-22 27 -39 20 -40
-17 -1 -26 -1 -26 -10 5 -12 42 -22 46 -47 22 -17 -15 -22 -16 -22 -5 0 19
-19 31 -31 19 -5 -5 -11 -24 -12 -41 -3 -41 -17 -42 -17 -1 0 27 -2 29 -15 15
-8 -8 -15 -21 -15 -30 0 -37 -20 -22 -35 26 -22 75 -20 120 8 145 30 27 57 36
73 22 20 -17 124 -23 172 -10 41 11 42 13 42 52 0 37 -2 40 -22 33 -49 -15
-52 -14 -18 3 32 17 35 22 38 69 2 41 -1 53 -14 58 -14 5 -15 1 -10 -29 6 -29
4 -34 -9 -29 -9 4 -15 1 -15 -7 0 -8 -6 -3 -13 11 -7 14 -20 26 -30 28 -13 3
-17 -4 -18 -30 -1 -18 -1 -39 0 -45 1 -7 -3 -13 -9 -13 -5 0 -10 8 -10 19 0
22 -25 45 -40 36 -5 -3 -10 -21 -11 -38 l-1 -32 -11 28 c-12 30 -34 31 -29 1
2 -17 0 -16 -18 5 -24 28 -26 68 -5 98 12 18 22 21 46 16 31 -6 69 17 69 44 0
28 108 5 123 -27 3 -6 4 -5 3 2 -5 26 -52 47 -113 51 -43 3 -70 11 -89 26 -18
14 -40 21 -68 20 l-41 -2 40 -6z m108 -278 c-7 -2 -19 -2 -25 0 -7 3 -2 5 12
5 14 0 19 -2 13 -5z m65 0 c-10 -2 -26 -2 -35 0 -10 3 -2 5 17 5 19 0 27 -2
18 -5z m-95 -330 c-7 -2 -21 -2 -30 0 -10 3 -4 5 12 5 17 0 24 -2 18 -5z"/>
<path d="M1 1336 c-1 -60 1 -67 14 -56 9 7 15 8 15 2 0 -5 -7 -12 -15 -16 -10
-4 -15 -20 -15 -50 0 -45 0 -45 25 -34 26 12 29 17 25 57 -2 23 0 24 50 19 59
-6 82 -24 105 -83 l15 -40 -6 35 c-12 71 -48 100 -125 100 -37 0 -41 3 -56 38
-9 20 -19 51 -23 67 -6 23 -8 13 -9 -39z"/>
<path d="M865 1370 c-20 -38 -14 -69 20 -106 27 -29 33 -69 13 -77 -7 -3 5
-13 27 -22 49 -21 157 -15 213 12 30 15 38 24 40 52 3 33 4 33 48 28 56 -6 88
-34 104 -93 10 -35 10 -47 0 -59 -8 -10 -17 -12 -24 -6 -7 6 -25 9 -41 7 -27
-3 -30 -7 -29 -40 l1 -37 -18 31 c-19 30 -46 33 -35 3 3 -8 1 -11 -4 -8 -6 4
-10 -12 -10 -39 0 -25 -4 -46 -10 -46 -5 0 -10 13 -10 28 0 29 -31 68 -43 55
-4 -3 -7 -19 -7 -35 0 -33 -10 -36 -28 -8 -16 25 -32 17 -32 -16 0 -13 -4 -24
-10 -24 -5 0 -10 13 -10 29 0 37 -15 47 -36 27 -20 -20 -34 -20 -34 -1 0 8 -6
15 -14 15 -9 0 -19 -17 -24 -42 -7 -31 -10 -36 -11 -17 -1 14 -4 29 -8 32 -9
9 -32 -24 -33 -48 -1 -41 -28 14 -39 81 -13 73 -6 95 37 118 15 9 21 15 14 16
-8 0 -27 -14 -44 -30 -29 -29 -30 -34 -24 -82 7 -49 19 -83 51 -137 7 -14 13
-46 12 -73 -1 -33 2 -49 12 -53 8 -3 62 -8 120 -12 116 -6 210 5 314 37 62 19
66 22 69 53 4 40 -17 169 -32 197 -6 11 -8 25 -5 31 4 5 1 32 -5 59 -16 68
-55 100 -120 100 -47 0 -49 1 -60 35 -11 33 -45 75 -60 75 -4 0 -5 -12 -2 -26
3 -16 -1 -30 -9 -35 -20 -13 -29 -11 -29 6 0 16 -34 38 -44 28 -3 -3 -6 -27
-6 -52 l-1 -46 -14 33 c-17 39 -39 38 -43 -1 -4 -31 -22 -37 -22 -8 0 29 -19
36 -28 10 l-9 -22 -16 24 c-21 29 -21 48 -1 77 9 13 14 26 11 29 -3 2 -13 -10
-22 -27z m285 -95 c0 -7 -77 -45 -92 -45 -7 0 10 11 37 24 59 29 55 27 55 21z
m-137 -52 c-18 -2 -48 -2 -65 0 -18 2 -4 4 32 4 36 0 50 -2 33 -4z m254 -170
c-3 -10 -5 -4 -5 12 0 17 2 24 5 18 2 -7 2 -21 0 -30z m93 -68 c0 -9 -6 -12
-17 -8 -11 4 -14 3 -9 -5 5 -8 1 -10 -11 -5 -10 3 -15 2 -10 -2 17 -20 -169
-76 -241 -74 -33 2 -34 2 -7 6 53 6 170 35 180 44 5 5 15 9 22 9 6 0 29 11 49
25 43 29 44 29 44 10z m-420 -91 c0 -2 -13 -4 -30 -4 -16 0 -30 4 -30 8 0 5
14 7 30 4 17 -2 30 -6 30 -8z"/>
<path d="M3348 1347 c3 -27 0 -33 -16 -34 -12 -1 -22 6 -25 18 -3 11 -14 19
-26 19 -18 0 -21 -6 -21 -47 l-1 -48 -14 33 c-16 36 -38 39 -43 6 -7 -41 -15
-50 -21 -25 -4 14 -13 27 -20 29 -11 4 -13 -6 -7 -46 4 -33 3 -53 -4 -57 -7
-5 -3 -13 12 -24 34 -24 170 -22 223 4 33 17 41 26 43 54 3 33 4 33 48 28 56
-6 88 -34 104 -93 10 -35 10 -47 0 -59 -9 -11 -16 -13 -24 -5 -21 21 -36 10
-37 -27 l-2 -38 -6 33 c-8 42 -26 38 -25 -6 l1 -33 -18 31 c-19 30 -46 33 -35
3 3 -8 1 -11 -4 -8 -6 4 -10 -12 -10 -41 0 -47 -11 -54 -17 -12 -4 27 -32 60
-44 52 -5 -3 -9 -18 -9 -35 0 -34 -10 -37 -28 -9 -16 25 -32 17 -32 -16 0 -13
-4 -24 -10 -24 -5 0 -10 13 -10 29 0 37 -15 47 -37 26 -15 -16 -18 -16 -28 -1
-20 27 -34 18 -42 -26 l-7 -43 -8 34 c-9 31 -10 32 -23 15 -8 -11 -15 -28 -15
-39 -1 -41 -28 14 -39 81 -13 73 -6 95 37 118 15 9 21 15 14 16 -8 0 -27 -14
-44 -30 -29 -29 -30 -34 -24 -82 7 -49 19 -83 51 -137 7 -14 13 -46 12 -73 -1
-33 2 -49 12 -53 8 -3 62 -8 120 -12 118 -6 221 6 319 38 58 19 62 23 63 52 2
57 -2 91 -18 147 -8 30 -15 64 -15 75 0 11 -4 41 -10 67 -14 66 -53 98 -118
98 -47 0 -48 1 -65 42 -14 37 -39 67 -55 68 -4 0 -4 -15 -2 -33z m48 -76 c-7
-11 -70 -41 -87 -41 -7 0 7 11 31 24 50 26 64 30 56 17z m-178 -48 c-10 -2
-26 -2 -35 0 -10 3 -2 5 17 5 19 0 27 -2 18 -5z m65 0 c-7 -2 -21 -2 -30 0
-10 3 -4 5 12 5 17 0 24 -2 18 -5z m324 -245 c-3 -8 -6 -5 -6 6 -1 11 2 17 5
13 3 -3 4 -12 1 -19z m-20 -3 c0 -8 -4 -16 -9 -16 -16 -3 -23 -5 -62 -22 -58
-26 -149 -47 -192 -46 -32 1 -28 3 21 10 67 10 162 41 209 70 17 10 31 19 32
19 0 0 1 -7 1 -15z m-407 -81 c0 -2 -11 -4 -25 -4 -14 0 -25 4 -25 9 0 4 11 6
25 3 14 -2 25 -6 25 -8z"/>
<path d="M1950 1150 c-34 -34 -22 -158 20 -200 13 -13 18 -34 19 -76 0 -34 5
-60 13 -65 21 -13 158 -22 244 -16 88 6 190 29 237 54 29 15 30 15 23 82 -5
58 -31 168 -42 180 -2 2 -10 -2 -19 -9 -10 -8 -15 -9 -15 -1 0 6 -9 11 -20 11
-19 0 -20 -4 -14 -36 5 -27 4 -35 -5 -30 -6 4 -11 21 -11 37 0 20 -4 29 -12
26 -8 -2 -12 -19 -11 -43 l2 -39 -14 33 c-15 34 -43 40 -37 7 2 -10 -1 -14 -7
-10 -7 4 -11 -12 -12 -47 -1 -48 -2 -50 -8 -18 -13 67 -44 83 -56 29 l-7 -31
-22 21 c-26 24 -36 19 -37 -18 0 -25 -1 -24 -12 6 -15 40 -21 43 -47 21 -16
-14 -20 -15 -20 -3 0 18 -19 30 -31 18 -5 -5 -11 -24 -12 -41 -3 -41 -17 -42
-17 -1 0 37 -15 30 -34 -14 l-13 -32 -17 54 c-22 75 -21 120 6 148 26 28 16
31 -12 3z m535 -178 c-8 -8 -25 10 -19 20 4 6 9 5 15 -3 4 -7 6 -15 4 -17z
m-29 -4 c4 -7 3 -8 -4 -4 -7 4 -12 2 -12 -4 0 -6 -5 -8 -11 -4 -8 4 -7 9 2 15
18 11 17 11 25 -3z m-40 -20 c4 -6 3 -8 -4 -4 -5 3 -12 2 -14 -4 -4 -13 -153
-50 -197 -49 -25 1 -12 5 39 14 41 7 95 22 120 33 25 11 46 21 47 21 1 1 5 -4
9 -11z m-363 -55 c-7 -2 -21 -2 -30 0 -10 3 -4 5 12 5 17 0 24 -2 18 -5z"/>
<path d="M105 1100 c-4 -6 -4 -25 0 -43 l6 -32 -15 33 c-17 36 -36 42 -36 11
0 -11 -4 -17 -10 -14 -6 4 -10 -13 -11 -42 -1 -46 -1 -46 -9 -15 -16 68 -30
60 -30 -16 0 -84 -1 -83 94 -48 35 14 67 22 70 19 3 -4 6 -2 6 4 0 16 28 24
36 10 4 -7 4 -9 -1 -5 -4 4 -14 0 -22 -8 -8 -8 -18 -12 -23 -9 -5 3 -11 1 -15
-5 -4 -6 -11 -8 -16 -5 -5 4 -9 2 -9 -4 0 -6 -27 -16 -60 -23 l-60 -12 0 -53
0 -53 43 6 c66 10 158 34 190 51 29 15 30 15 23 81 -7 73 -35 182 -45 182 -4
0 -12 -5 -19 -12 -9 -9 -12 -9 -12 0 0 7 -10 12 -21 12 -19 0 -21 -4 -15 -30
3 -17 1 -30 -4 -30 -6 0 -10 14 -10 30 0 30 -13 40 -25 20z m130 -128 c-8 -8
-25 10 -19 20 4 6 9 5 15 -3 4 -7 6 -15 4 -17z"/>
<path d="M298 903 c7 -3 16 -2 19 1 4 3 -2 6 -13 5 -11 0 -14 -3 -6 -6z"/>
<path d="M2565 899 c66 -26 72 -50 18 -78 -147 -74 -557 -96 -674 -35 -38 19
-37 40 4 64 17 11 27 20 21 20 -17 0 -64 -40 -64 -54 0 -53 129 -80 345 -73
222 8 377 46 409 99 14 23 -16 54 -59 62 l-30 6 30 -11z"/>
<path d="M3668 903 c7 -3 16 -2 19 1 4 3 -2 6 -13 5 -11 0 -14 -3 -6 -6z"/>
<path d="M348 884 c12 -8 22 -22 22 -30 0 -24 -94 -61 -199 -79 -156 -27 -187
-35 -111 -29 151 13 289 55 314 96 8 13 5 22 -8 37 -11 12 -24 21 -30 21 -6 0
0 -7 12 -16z"/>
<path d="M1465 888 c68 -38 7 -81 -160 -114 -127 -25 -407 -26 -486 -2 -82 26
-83 50 -4 91 17 9 26 16 22 17 -17 0 -85 -40 -91 -55 -8 -22 25 -52 76 -67 67
-20 392 -17 491 5 98 21 175 54 189 80 9 17 7 24 -12 39 -12 10 -27 18 -34 18
-6 0 -2 -6 9 -12z"/>
<path d="M3715 888 c46 -26 37 -49 -32 -79 -83 -35 -209 -53 -383 -53 -170 -1
-256 12 -286 41 -13 14 -13 18 8 40 17 19 19 23 5 17 -10 -3 -23 -16 -29 -27
-9 -17 -7 -24 12 -39 43 -35 98 -43 290 -43 198 1 293 14 391 56 62 27 77 51
49 79 -11 11 -26 20 -32 20 -7 0 -4 -6 7 -12z"/>
<path d="M3060 870 c-8 -5 -10 -10 -5 -10 6 0 17 5 25 10 8 5 11 10 5 10 -5 0
-17 -5 -25 -10z"/>
<path d="M4146 849 c-14 -11 -26 -26 -26 -33 0 -45 120 -76 280 -74 l105 1
-130 7 c-137 8 -172 14 -217 37 -37 18 -35 39 5 63 17 11 27 20 21 20 -6 0
-23 -9 -38 -21z"/>
<path d="M820 380 c0 -6 11 -8 24 -6 14 2 41 -4 60 -14 45 -22 47 -16 4 10
-35 21 -88 27 -88 10z"/>
<path d="M1946 381 c-3 -4 12 -8 34 -8 25 0 48 -7 60 -18 11 -10 20 -13 20 -8
0 25 -101 55 -114 34z"/>
<path d="M3070 382 c0 -6 15 -11 33 -10 54 2 99 -31 62 -46 -8 -3 -15 -13 -15
-22 0 -9 -11 -29 -25 -46 -33 -39 -32 -70 6 -113 25 -28 30 -41 25 -65 -8 -42
18 -53 118 -48 105 5 154 27 158 71 3 31 5 32 43 29 52 -4 79 -22 94 -64 25
-65 31 -75 25 -38 -14 80 -76 130 -144 116 -22 -4 -28 1 -45 42 -11 26 -19 54
-18 62 2 8 0 10 -3 4 -3 -7 -13 -10 -23 -7 -15 4 -17 -1 -13 -25 3 -23 0 -29
-14 -29 -10 0 -26 9 -35 20 -23 29 -39 13 -40 -41 -1 -46 -1 -46 -10 -15 -13
45 -49 47 -49 3 0 -34 -17 -41 -22 -8 -4 30 -28 36 -28 6 -1 -23 -1 -23 -16
-3 -26 35 -27 62 -4 95 18 26 24 28 42 19 16 -9 26 -7 47 9 35 26 36 67 1 67
-14 0 -37 8 -51 18 -33 22 -99 34 -99 19z m330 -230 c0 -8 -64 -42 -78 -42 -4
0 11 11 33 24 48 29 45 28 45 18z m-93 -48 c-3 -3 -12 -4 -19 -1 -8 3 -5 6 6
6 11 1 17 -2 13 -5z"/>
<path d="M4196 381 c-3 -4 12 -8 34 -8 25 0 48 -7 60 -18 11 -10 20 -13 20 -8
0 25 -101 55 -114 34z"/>
<path d="M933 334 c-18 -8 -33 -21 -33 -30 0 -9 -11 -29 -25 -46 -33 -39 -32
-70 6 -113 25 -28 30 -41 25 -65 -4 -23 -1 -32 15 -41 32 -17 177 -7 222 15
34 17 38 23 35 47 -5 35 11 42 67 29 47 -11 71 -36 86 -92 5 -22 13 -38 15
-35 8 8 -14 79 -31 104 -17 25 -86 47 -119 40 -17 -4 -25 4 -46 46 -29 61 -59
76 -52 26 3 -22 1 -30 -7 -25 -6 4 -11 2 -11 -3 0 -19 -15 -12 -25 12 -18 40
-40 27 -45 -28 -5 -48 -5 -49 -12 -17 -5 23 -13 32 -27 32 -15 0 -21 -8 -23
-32 l-4 -33 -12 28 c-14 33 -32 36 -32 5 0 -21 -1 -21 -17 -5 -39 39 -5 140
40 116 26 -15 72 18 72 52 0 29 -19 33 -62 13z m217 -182 c0 -8 -64 -42 -78
-42 -4 0 11 11 33 24 48 29 45 28 45 18z m-97 -49 c-7 -2 -19 -2 -25 0 -7 3
-2 5 12 5 14 0 19 -2 13 -5z"/>
<path d="M2053 330 c-18 -11 -33 -25 -33 -31 0 -6 -9 -22 -20 -36 -28 -36 -26
-84 5 -117 18 -19 25 -38 25 -65 0 -46 11 -51 115 -51 95 0 155 27 155 68 0
35 17 44 63 35 42 -8 74 -37 88 -82 6 -20 15 -40 20 -46 5 -5 3 13 -5 40 -22
71 -52 97 -116 100 -52 3 -53 4 -72 47 -10 24 -28 50 -40 57 -20 12 -21 12
-15 -22 4 -28 3 -35 -9 -30 -8 3 -14 -1 -14 -8 -1 -8 -8 -2 -16 14 -22 40 -44
35 -45 -10 -1 -21 -1 -41 0 -46 0 -4 -3 -7 -8 -7 -5 0 -11 10 -13 23 -5 35
-41 29 -49 -8 l-6 -30 -8 28 c-8 29 -31 32 -29 3 2 -21 -5 -20 -22 2 -32 41 0
127 41 112 29 -11 64 6 75 36 9 24 14 26 47 21 39 -7 83 -41 84 -66 0 -10 3
-11 5 -4 15 35 -56 88 -108 81 -16 -3 -31 -1 -34 4 -8 13 -27 9 -61 -12z m227
-178 c0 -9 -64 -42 -82 -42 -6 0 9 11 33 24 53 29 49 28 49 18z m-107 -49 c-7
-2 -19 -2 -25 0 -7 3 -2 5 12 5 14 0 19 -2 13 -5z"/>
<path d="M4308 337 c-16 -6 -31 -20 -34 -31 -4 -12 -16 -34 -27 -49 -24 -35
-25 -67 -3 -98 9 -13 16 -18 16 -12 0 7 -4 15 -10 18 -15 10 -12 63 6 90 13
20 20 23 35 15 14 -8 27 -6 50 5 24 13 30 22 27 43 -3 30 -20 35 -60 19z"/>
<path d="M1025 334 c46 -12 77 -28 90 -48 8 -11 15 -16 15 -10 0 22 -48 55
-86 59 -21 2 -30 2 -19 -1z"/>
<path d="M3302 325 c26 -8 54 -25 63 -37 8 -13 15 -18 15 -12 0 21 -48 55 -86
60 -39 4 -39 4 8 -11z"/>
<path d="M4415 329 c21 -5 50 -19 62 -31 13 -12 23 -16 23 -10 0 19 -62 52
-95 51 -27 -1 -27 -2 10 -10z"/>
<path d="M1 264 c0 -11 3 -14 6 -6 3 7 2 16 -1 19 -3 4 -6 -2 -5 -13z"/>
<path d="M4473 227 c5 -31 3 -38 -8 -33 -8 3 -15 0 -15 -7 -1 -7 -8 0 -16 16
-22 40 -44 35 -45 -10 -1 -21 -1 -41 0 -45 0 -5 -3 -8 -8 -8 -5 0 -11 10 -13
23 -5 35 -41 29 -49 -8 l-6 -30 -7 28 c-8 28 -25 37 -27 15 -3 -26 3 -123 7
-127 9 -9 124 -13 169 -7 l45 7 0 45 c0 42 -1 44 -21 34 -11 -7 -23 -9 -26 -6
-3 3 6 10 21 15 23 9 26 16 26 60 0 33 -5 53 -17 62 -15 13 -16 11 -10 -24z
m-40 -124 c-7 -2 -19 -2 -25 0 -7 3 -2 5 12 5 14 0 19 -2 13 -5z"/>
<path d="M2 148 c0 -54 3 -98 7 -98 22 0 48 31 44 53 -6 31 17 40 66 27 45
-12 66 -33 85 -86 8 -21 15 -31 15 -21 2 32 -27 85 -55 103 -15 10 -47 19 -71
20 -43 2 -46 4 -68 50 l-23 49 0 -97z"/>
<path d="M843 40 c-18 -11 -33 -25 -33 -32 0 -6 10 -3 23 9 12 11 31 25 42 31
11 6 16 12 10 12 -5 0 -25 -9 -42 -20z"/>
<path d="M3093 40 c-18 -11 -33 -25 -33 -32 0 -6 10 -3 23 9 12 11 31 25 42
31 11 6 16 12 10 12 -5 0 -25 -9 -42 -20z"/>
<path d="M1950 25 c-30 -32 -19 -32 16 0 15 14 23 25 17 25 -5 0 -20 -11 -33
-25z"/>
<path d="M4199 23 l-24 -26 33 23 c33 25 38 30 24 30 -5 0 -19 -12 -33 -27z"/>
</g>
</svg>
